<svg width="31" height="30" viewBox="0 0 31 30" fill="none" xmlns="http://www.w3.org/2000/svg">
<path d="M25.1806 8.586C25.3503 8.75568 25.5879 8.82356 25.7915 8.82356C25.9951 8.82356 26.2327 8.75568 26.4024 8.586L30.373 5.02264C30.7463 4.68327 30.7802 4.10635 30.4408 3.73304C30.1015 3.35974 29.5245 3.3258 29.1512 3.66517L26.7417 5.83712V0.916287C26.7417 0.407235 26.3345 0 25.8254 0C25.3164 0 24.9091 0.407235 24.9091 0.916287V5.87106L22.4657 3.66517C22.0924 3.3258 21.5154 3.35974 21.1761 3.73304C20.8367 4.10635 20.8707 4.68327 21.244 5.02264L25.1806 8.586Z" fill="#002970"/>
<path d="M14.0812 11.8099C14.3527 11.8099 14.6921 11.8438 15.0993 11.8438H16.0156C16.2532 11.8438 16.4229 11.7759 16.5247 11.6741C16.6265 11.5384 16.6944 11.4026 16.6944 11.2329C16.6944 11.0633 16.6265 10.9275 16.5247 10.7918C16.4229 10.656 16.2532 10.5881 16.0156 10.5881H9.73733C9.49977 10.5881 9.33009 10.656 9.22828 10.7578C9.12647 10.8936 9.05859 11.0293 9.05859 11.199C9.05859 11.3687 9.12647 11.5044 9.22828 11.6402C9.33009 11.7759 9.49977 11.8438 9.73733 11.8438H10.5179C11.9432 11.8438 12.8256 12.3189 13.131 13.3031H9.77126C9.5337 13.3031 9.36402 13.3709 9.26221 13.4728C9.1604 13.6085 9.09252 13.7443 9.09252 13.9139C9.09252 14.0836 9.1604 14.2194 9.26221 14.3551C9.36402 14.4909 9.5337 14.5587 9.77126 14.5587H13.1649C13.0971 14.932 12.9953 15.2375 12.7916 15.475C12.588 15.7126 12.3504 15.9162 12.079 16.0859C11.8075 16.2556 11.502 16.3574 11.1287 16.4253C10.7894 16.4931 10.45 16.5271 10.0767 16.5271H9.87306C9.66944 16.5271 9.46583 16.5949 9.33008 16.7307C9.19434 16.8664 9.12645 17.0701 9.12645 17.2737C9.12645 17.4094 9.1604 17.5112 9.22828 17.647C9.29615 17.7827 9.36402 17.8845 9.49977 17.9864L14.0134 22.4999C14.1491 22.6357 14.2509 22.7036 14.3866 22.7375C14.5224 22.7714 14.6242 22.8054 14.76 22.8054C14.9975 22.8054 15.2011 22.7375 15.3369 22.5678C15.4726 22.4321 15.5405 22.2285 15.5405 22.0248C15.5405 21.7873 15.4387 21.5837 15.269 21.414L11.4342 17.647C11.8075 17.6131 12.1808 17.5452 12.588 17.4094C12.9952 17.2737 13.3346 17.104 13.674 16.8664C14.0134 16.6289 14.2849 16.3235 14.4885 15.9502C14.726 15.5768 14.8618 15.1357 14.9297 14.5927H16.0496C16.2871 14.5927 16.4568 14.5248 16.5586 14.423C16.6604 14.2872 16.7283 14.1515 16.7283 13.9818C16.7283 13.8121 16.6604 13.6764 16.5586 13.5406C16.4568 13.4049 16.2871 13.337 16.0496 13.337H14.8278C14.726 12.9637 14.5563 12.6583 14.3188 12.4207C14.0812 12.1832 13.8437 12.0135 13.6061 11.9117V11.8438C13.64 11.8099 13.8097 11.8099 14.0812 11.8099Z" fill="#002970"/>
<path d="M6.61767 30.0001H20.0906C23.7218 30.0001 26.6743 27.0476 26.6743 23.4164V12.7263C26.6743 12.2172 26.267 11.81 25.758 11.81C25.2489 11.81 24.8417 12.2172 24.8417 12.7263V23.4164C24.8417 26.0295 22.7037 28.1675 20.0566 28.1675H6.58372C3.93665 28.1675 1.79864 26.0295 1.79864 23.4164V9.97741C1.79864 7.36428 3.93665 5.22626 6.58372 5.22626H16.2557C16.7647 5.22626 17.172 4.81901 17.172 4.30996C17.172 3.80091 16.7647 3.39368 16.2557 3.39368H6.58372C2.95249 3.39368 0 6.34617 0 9.97741V23.4164C0.0339368 27.0476 2.98644 30.0001 6.61767 30.0001Z" fill="#002970"/>
</svg>
