<svg width="47" height="55" viewBox="0 0 47 55" fill="none" xmlns="http://www.w3.org/2000/svg">
<path d="M3.00053 11L23.5005 2.5L43.9993 11C43.9993 11 44 51.5 23.5005 51.5C3.00107 51.5 1.50053 21.3333 3.00053 11Z" fill="white"/>
<path d="M15 25.6364L20.8947 32L31 22" stroke="#00BAF2" stroke-width="3" stroke-linecap="round" stroke-linejoin="round"/>
<path d="M45.0816 8.90591L24.0269 0.164235C23.4995 -0.0546912 22.9066 -0.0547986 22.3793 0.164235L1.32462 8.90591C0.522715 9.23891 0 10.0218 0 10.8901V21.5168C0 36.1491 8.84394 49.3111 22.3912 54.8407C22.9116 55.0531 23.4946 55.0531 24.015 54.8407C37.5621 49.3112 46.4062 36.1492 46.4062 21.5168V10.8901C46.4062 10.0218 45.8836 9.23891 45.0816 8.90591ZM43.1094 21.5168C43.1094 33.9557 34.8047 46.4066 23.2031 51.5179C11.9116 46.5431 3.29688 34.2928 3.29688 21.5168V11.3244L23.2031 3.47464L43.1094 11.3244V21.5168Z" fill="#00BAF2"/>
</svg>
