<svg width="44" height="55" viewBox="0 0 44 55" fill="none" xmlns="http://www.w3.org/2000/svg">
<path d="M2 12.0001C2 10.3432 3.34315 9.00009 5 9.00009H10.2254C11.0674 9.00009 11.75 8.3175 11.75 7.47549C11.75 6.88082 12.0958 6.34042 12.6357 6.09121L20.2428 2.58024C21.0405 2.21207 21.9595 2.21208 22.7572 2.58025L30.3643 6.09131C30.9042 6.34051 31.25 6.88089 31.25 7.47554C31.25 8.31752 31.9326 9.00009 32.7746 9.00009H38C39.6569 9.00009 41 10.3432 41 12.0001V50.0001C41 51.6569 39.6569 53.0001 38 53.0001H5C3.34315 53.0001 2 51.6569 2 50.0001V12.0001Z" fill="white"/>
<path d="M37.7115 7.20604H32.7357V4.98004C32.7357 4.25985 31.9501 3.93253 31.2299 3.93253H27.3672C26.4506 1.31367 24.1591 0.00423916 21.5402 0.00423916C18.9502 -0.0931315 16.5944 1.495 15.7133 3.93253H11.9159C11.1957 3.93253 10.4756 4.25985 10.4756 4.98004V7.20604H5.49963C2.55094 7.23749 0.1386 9.56361 0 12.5092V50.0242C0 52.905 2.61886 55 5.49963 55H37.7115C40.5923 55 43.2112 52.905 43.2112 50.0242V12.5093C43.0726 9.56361 40.6602 7.23749 37.7115 7.20604ZM13.0943 6.55138H16.6952C17.3238 6.47469 17.8287 5.99648 17.9393 5.37291C18.327 3.6844 19.8084 2.47234 21.5402 2.42673C23.2561 2.47873 24.7151 3.69455 25.0756 5.37291C25.1931 6.01804 25.7313 6.50238 26.3851 6.55138H30.117V11.7891H13.0943V6.55138ZM40.5923 50.0243C40.5923 51.4647 39.1519 52.3813 37.7115 52.3813H5.49963C4.05924 52.3813 2.61886 51.4647 2.61886 50.0243V12.5093C2.75244 11.01 3.99458 9.85246 5.49963 9.82502H10.4754V13.1641C10.5446 13.8977 11.18 14.4464 11.9158 14.4081H31.2298C31.9792 14.4491 32.6345 13.9078 32.7356 13.1641V9.82489H37.7114C39.2163 9.85246 40.4586 11.0099 40.5922 12.5092V50.0243H40.5923Z" fill="#00BAF2"/>
<path d="M16.5634 34.27C16.0723 33.7524 15.2569 33.7232 14.7301 34.2046L10.5399 38.1983L8.77221 36.3651C8.2811 35.8474 7.46579 35.8183 6.93896 36.2997C6.43181 36.831 6.43181 37.667 6.93896 38.1983L9.62323 40.9481C9.85557 41.2083 10.1912 41.3522 10.5398 41.341C10.8852 41.3361 11.2146 41.1949 11.4564 40.9481L16.5631 36.1033C17.0694 35.6389 17.1032 34.8519 16.6387 34.3457C16.6149 34.3193 16.5897 34.2941 16.5634 34.27Z" fill="#00BAF2"/>
<path d="M35.3561 37.0854H20.2977C19.5745 37.0854 18.9883 37.6717 18.9883 38.3949C18.9883 39.1181 19.5745 39.7043 20.2977 39.7043H35.3561C36.0793 39.7043 36.6655 39.1181 36.6655 38.3949C36.6655 37.6717 36.0793 37.0854 35.3561 37.0854Z" fill="#00BAF2"/>
<path d="M16.5634 23.7945C16.0723 23.2768 15.2569 23.2476 14.7301 23.729L10.5399 27.7227L8.77221 25.8895C8.2811 25.3718 7.46579 25.3426 6.93896 25.8241C6.43181 26.3554 6.43181 27.1914 6.93896 27.7227L9.62323 30.4726C9.85557 30.7327 10.1912 30.8766 10.5398 30.8654C10.8852 30.8605 11.2146 30.7193 11.4564 30.4726L16.5631 25.6277C17.0694 25.1633 17.1032 24.3763 16.6387 23.8701C16.6149 23.8437 16.5897 23.8185 16.5634 23.7945Z" fill="#00BAF2"/>
<path d="M35.3561 26.6099H20.2977C19.5745 26.6099 18.9883 27.1961 18.9883 27.9193C18.9883 28.6425 19.5745 29.2287 20.2977 29.2287H35.3561C36.0793 29.2287 36.6655 28.6425 36.6655 27.9193C36.6655 27.1961 36.0793 26.6099 35.3561 26.6099Z" fill="#00BAF2"/>
</svg>
