<svg width="46" height="46" viewBox="0 0 46 46" fill="none" xmlns="http://www.w3.org/2000/svg">
<rect width="46" height="46" fill="white"/>
<path d="M13.5664 0H8.08594V2.69531H13.5664V0Z" fill="#00BAF2"/>
<path d="M21.7422 0H16.2617V2.69531H21.7422V0Z" fill="#00BAF2"/>
<path d="M29.8281 0H24.4375V2.69531H29.8281V0Z" fill="#00BAF2"/>
<path d="M37.9141 0H32.5234V2.69531H37.9141V0Z" fill="#00BAF2"/>
<path d="M40.6094 0V2.69531H43.3047V5.39062H46C46 4.73845 46 0.656488 46 0C45.3478 0 41.2659 0 40.6094 0Z" fill="#00BAF2"/>
<path d="M27.1328 8.08594V10.7812H33.3129L22.5316 21.5625H2.69531V16.1719H0C0 18.2706 0 44.6266 0 46C1.30148 46 27.6265 46 29.8281 46V43.3047H24.4375V23.4684L35.2188 12.6871V18.8672H37.9141V8.08594H27.1328ZM21.7422 43.3047H2.69531V24.2578H21.7422V43.3047Z" fill="#00BAF2"/>
<path d="M2.69531 8.08594H0V13.4766H2.69531V8.08594Z" fill="#00BAF2"/>
<path d="M0 0C0 0.652176 0 4.73414 0 5.39062H2.69531V2.69531H5.39062V0C4.73845 0 0.656488 0 0 0Z" fill="#00BAF2"/>
<path d="M46 8.08594H43.3047V13.4766H46V8.08594Z" fill="#00BAF2"/>
<path d="M46 16.1719H43.3047V21.5625H46V16.1719Z" fill="#00BAF2"/>
<path d="M46 24.2578H43.3047V29.6484H46V24.2578Z" fill="#00BAF2"/>
<path d="M46 32.3438H43.3047V37.8242H46V32.3438Z" fill="#00BAF2"/>
<path d="M43.3047 40.5195V43.3047H40.6094V46C41.2616 46 45.3435 46 46 46C46 44.0767 46 42.4398 46 40.5195H43.3047Z" fill="#00BAF2"/>
<path d="M37.9141 43.3047H32.5234V46H37.9141V43.3047Z" fill="#00BAF2"/>
</svg>
