<svg width="57" height="55" viewBox="0 0 57 55" fill="none" xmlns="http://www.w3.org/2000/svg">
<path d="M22.142 52.9779C22.3617 53.0734 22.5986 53.1228 22.8382 53.1231C23.5499 53.1214 24.1907 52.6908 24.4606 52.0323L25.8846 48.5911C27.617 48.8278 29.3737 48.8253 31.1054 48.5837L32.5354 52.0281C32.7113 52.4611 33.0531 52.8058 33.4847 52.9853C33.9163 53.1647 34.4017 53.1641 34.8328 52.9835L40.785 50.5156C41.2246 50.3351 41.5731 49.9854 41.7521 49.5452C41.9275 49.1199 41.9231 48.6417 41.74 48.2196L40.3161 44.7701C41.7096 43.7147 42.9521 42.4736 44.0091 41.0813L47.4383 42.5006C47.8705 42.6874 48.3597 42.6925 48.7957 42.5147C49.2316 42.3369 49.5778 41.9912 49.7561 41.5554L52.2274 35.5956C52.4053 35.1659 52.4065 34.6834 52.2306 34.2529C52.0551 33.8177 51.7109 33.472 51.2765 33.2946L48.8352 32.2782L9.05773 31.9155L5.6917 33.3029C4.80889 33.6821 4.39743 34.7026 4.77028 35.5881L7.23152 41.559C7.41073 41.9873 7.75227 42.3271 8.18144 42.5042C8.61084 42.6854 9.09507 42.6862 9.52509 42.5065L12.9774 41.0807C14.0362 42.474 15.279 43.7172 16.6718 44.7765L15.2564 48.1981C15.0664 48.6256 15.0587 49.1119 15.2351 49.5451C15.4137 49.9841 15.7609 50.3332 16.1989 50.514L22.142 52.9779Z" fill="white" stroke="#00BAF2" stroke-width="3"/>
<path d="M50.4984 32.0002H9.49844C7.1651 31.1668 2.39844 27.8 1.99844 21C1.59844 14.2 9.83177 11.1667 13.9984 10.5C14.4984 8.5 18.4984 2.5 26.4984 2.5C32.8984 2.5 36.1651 8.50016 36.9984 11.5002C43.3984 11.1002 46.9984 15.6669 47.9984 18.0002C58.5 19.5 54.6651 29.5002 50.4984 32.0002Z" fill="white"/>
<path d="M47.9716 32.6241H47.9708H12.3489C6.35723 32.6241 1.5 27.7668 1.5 21.7751C1.5 15.7834 6.35723 10.9262 12.3489 10.9262C12.4245 10.9262 12.492 10.9267 12.555 10.9281L13.5616 10.951L13.9641 10.0282C15.9908 5.38119 20.5787 2.37695 25.6484 2.37695C30.7182 2.37695 35.306 5.38119 37.3328 10.0282L37.7159 10.9065L38.6739 10.9281C42.3845 11.0118 45.7019 13.262 47.1516 16.6787L47.514 17.5327L48.4399 17.59C52.4981 17.8408 55.6229 21.2702 55.4963 25.3341C55.3697 29.398 52.0375 32.6263 47.9716 32.6241Z" stroke="#00BAF2" stroke-width="3"/>
<path d="M28.4961 42.9238L28.4981 42.9238C34.498 42.9 39.87 39.201 42.0326 33.6044C42.1898 33.2031 42.1197 32.7483 41.8489 32.4129C41.578 32.0774 41.1479 31.9131 40.7223 31.9825C40.297 32.0518 39.9416 32.3438 39.791 32.7475C38.0028 37.4304 33.51 40.5241 28.4971 40.5241C23.4842 40.5241 18.9914 37.4304 17.2031 32.7474C17.0525 32.3438 16.6972 32.0518 16.2719 31.9825C15.8463 31.9131 15.4162 32.0774 15.1453 32.4129C14.8745 32.7483 14.8044 33.2031 14.9616 33.6043C17.1242 39.201 22.4962 42.9 28.4961 42.9238Z" fill="#00BAF2" stroke="#00BAF2" stroke-width="0.5"/>
<path d="M16.1828 27L17.1144 24.2876H21.3588L22.2958 27H24.4786L20.4989 16H17.9743L14 27H16.1828ZM17.6656 22.687L19.1925 18.2559H19.2807L20.8075 22.687H17.6656Z" fill="#00BAF2"/>
<path d="M25.9655 27H28.0106V23.2832H30.1713C32.7786 23.2832 34.1787 21.7578 34.1787 19.6416C34.1787 17.5415 32.7951 16 30.1989 16H25.9655V27ZM28.0106 21.645V17.665H29.8847C31.4171 17.665 32.0951 18.4707 32.0951 19.6416C32.0951 20.8125 31.4171 21.645 29.8957 21.645H28.0106Z" fill="#00BAF2"/>
<path d="M38 16H35.955V27H38V16Z" fill="#00BAF2"/>
</svg>
