<svg width="67" height="45" viewBox="0 0 67 45" fill="none" xmlns="http://www.w3.org/2000/svg">
<path d="M0.117188 33.651H3.56423C4.74455 33.5656 5.92623 33.7971 6.98712 34.3214C7.33987 34.5485 7.62487 34.8665 7.81214 35.2419C7.9994 35.6173 8.082 36.0363 8.05124 36.4547C8.07567 37.0336 7.91255 37.6049 7.58613 38.0836C7.44151 38.2878 7.25725 38.4608 7.04433 38.5922C6.83141 38.7237 6.5942 38.8109 6.34684 38.8487V38.9242C6.94458 39.0183 7.48603 39.3312 7.866 39.8021C8.19863 40.3088 8.36183 40.9081 8.33212 41.5135C8.3533 41.9665 8.26488 42.4179 8.07437 42.8294C7.88387 43.2409 7.59689 43.6004 7.2378 43.8773C6.36955 44.4853 5.32228 44.7842 4.26391 44.726H0.117188V33.651ZM2.46589 38.0383H3.83001C4.30967 38.0751 4.78972 37.9723 5.21226 37.7423C5.36056 37.629 5.47763 37.4798 5.55247 37.3088C5.62732 37.1378 5.65748 36.9506 5.64012 36.7648C5.65457 36.5845 5.61875 36.4037 5.53664 36.2425C5.45454 36.0813 5.32935 35.946 5.175 35.8517C4.71517 35.6358 4.20797 35.5405 3.70115 35.5748H2.46589V38.0383ZM2.46589 39.9028V42.7891H3.99612C4.50141 42.8286 5.00538 42.6978 5.42769 42.4176C5.58794 42.2772 5.71323 42.1013 5.79362 41.904C5.87401 41.7067 5.90728 41.4934 5.89079 41.281C5.89079 40.3622 5.23407 39.9024 3.92062 39.9017L2.46589 39.9028Z" fill="#002970"/>
<path d="M16.3653 44.7278L16.0542 43.6446H15.9334C15.6779 44.0458 15.3104 44.3632 14.8763 44.5577C14.389 44.7795 13.8583 44.8895 13.323 44.8799C12.913 44.9103 12.5011 44.855 12.1137 44.7173C11.7263 44.5797 11.3718 44.3628 11.0729 44.0805C10.5312 43.4416 10.2597 42.6169 10.3159 41.7811V36.2582H12.6313V41.2053C12.5981 41.6862 12.7119 42.1658 12.9575 42.5805C13.0784 42.7376 13.2368 42.8618 13.4181 42.9418C13.5994 43.0218 13.7979 43.0551 13.9955 43.0385C14.2651 43.0615 14.5361 43.0139 14.7819 42.9004C15.0276 42.7869 15.2395 42.6115 15.3968 42.3912C15.7372 41.729 15.8868 40.9852 15.8287 40.2429V36.2572H18.1442V44.7278H16.3653Z" fill="#002970"/>
<path d="M26.4707 42.2123C26.4931 42.592 26.4223 42.9714 26.2644 43.3175C26.1064 43.6636 25.8662 43.9657 25.5646 44.1975C24.7578 44.708 23.8088 44.9468 22.8565 44.8791C22.3286 44.8863 21.8012 44.8445 21.281 44.7542C20.8623 44.6757 20.4533 44.5525 20.0608 44.3868V42.474C20.5272 42.6877 21.013 42.8562 21.5115 42.9774C21.975 43.1025 22.4521 43.1701 22.932 43.1787C23.7703 43.1787 24.1894 42.9364 24.1894 42.4519C24.1928 42.3706 24.1798 42.2894 24.1511 42.2133C24.1224 42.1372 24.0786 42.0677 24.0223 42.0089C23.85 41.8529 23.6561 41.7227 23.4465 41.6223C23.174 41.4787 22.8102 41.3109 22.3552 41.1189C21.8483 40.9243 21.3664 40.6702 20.9196 40.3619C20.6348 40.1545 20.4059 39.8799 20.2531 39.5625C20.1047 39.2127 20.0337 38.835 20.0447 38.4551C20.0305 38.1138 20.1033 37.7745 20.2564 37.4691C20.4094 37.1638 20.6376 36.9023 20.9196 36.7095C21.6655 36.258 22.532 36.0461 23.4022 36.1024C24.4316 36.1044 25.448 36.3319 26.3801 36.7689L25.6824 38.436C25.2582 38.2541 24.8616 38.1051 24.4925 37.989C24.1274 37.8736 23.7468 37.8149 23.3639 37.8149C22.682 37.8149 22.3411 37.9994 22.3411 38.3686C22.3457 38.4788 22.3783 38.586 22.4359 38.6801C22.4935 38.7741 22.5742 38.8519 22.6703 38.9061C23.1302 39.1734 23.613 39.3991 24.1129 39.5807C24.6266 39.7708 25.1152 40.023 25.5676 40.3317C25.8564 40.5413 26.0902 40.8176 26.2492 41.1371C26.403 41.4742 26.4787 41.8418 26.4707 42.2123Z" fill="#002970"/>
<path d="M28.1758 34.0676C28.1758 33.3153 28.5949 32.9391 29.4332 32.9391C30.2715 32.9391 30.6909 33.3153 30.6916 34.0676C30.7008 34.2215 30.6776 34.3755 30.6235 34.5198C30.5694 34.6641 30.4856 34.7954 30.3775 34.9052C30.1141 35.1245 29.7759 35.2328 29.4342 35.2073C28.5953 35.2052 28.1758 34.8254 28.1758 34.0676ZM30.5849 44.7279H28.2694V36.2573H30.5849V44.7279Z" fill="#002970"/>
<path d="M40.8273 44.728H38.5118V39.781C38.5451 39.3002 38.4317 38.8207 38.1867 38.4058C38.0657 38.2488 37.9073 38.1246 37.726 38.0446C37.5447 37.9645 37.3462 37.9312 37.1487 37.9477C36.8791 37.9248 36.6081 37.9724 36.3624 38.0859C36.1167 38.1994 35.9048 38.3749 35.7474 38.595C35.4072 39.2573 35.2577 40.0011 35.3155 40.7434V44.729H33V36.2584H34.7658L35.0759 37.3416H35.2047C35.4604 36.9343 35.8305 36.6114 36.2689 36.4134C36.7564 36.1969 37.2858 36.0907 37.8192 36.1024C38.2281 36.0732 38.6385 36.1292 39.0246 36.2668C39.4106 36.4044 39.764 36.6206 40.0622 36.9017C40.61 37.5408 40.8847 38.3694 40.8273 39.2091V44.728Z" fill="#002970"/>
<path d="M47.0423 44.8787C46.4613 44.9134 45.8792 44.8317 45.3301 44.6384C44.7811 44.4451 44.2761 44.1442 43.8449 43.7532C43.4445 43.3273 43.1358 42.8238 42.9377 42.2738C42.7396 41.7239 42.6564 41.1392 42.6932 40.5558C42.6168 39.3631 42.9973 38.1861 43.7573 37.2638C44.1354 36.8695 44.5941 36.5616 45.1022 36.3611C45.6102 36.1605 46.1556 36.0722 46.701 36.102C47.2123 36.0714 47.7244 36.1464 48.2053 36.3224C48.6863 36.4984 49.1259 36.7715 49.4967 37.1248C49.8432 37.5056 50.1101 37.9516 50.282 38.4369C50.4538 38.9221 50.5271 39.4368 50.4974 39.9507V41.0722H45.0349C45.026 41.6407 45.2349 42.1911 45.6188 42.6105C45.8227 42.8021 46.0637 42.9499 46.3268 43.0449C46.59 43.14 46.8698 43.1802 47.149 43.1632C47.6357 43.1658 48.1212 43.1124 48.5957 43.0042C49.0868 42.8864 49.5642 42.7177 50.0202 42.5008V44.2887C49.6092 44.4931 49.1738 44.6443 48.7246 44.7387C48.1702 44.8436 47.6064 44.8905 47.0423 44.8787ZM46.7161 37.741C46.5017 37.7294 46.2874 37.7652 46.0884 37.8458C45.8893 37.9263 45.7104 38.0497 45.5644 38.2071C45.2621 38.582 45.0941 39.0474 45.0872 39.5289H48.3299C48.3514 39.0479 48.1919 38.5763 47.8829 38.2071C47.7332 38.0504 47.5515 37.9277 47.3502 37.8474C47.1488 37.7672 46.9326 37.7312 46.7161 37.742V37.741Z" fill="#002970"/>
<path d="M58.2861 42.2119C58.3085 42.5917 58.2376 42.9711 58.0797 43.3171C57.9217 43.6632 57.6815 43.9653 57.38 44.1972C56.5732 44.7076 55.6242 44.9464 54.6719 44.8788C54.144 44.886 53.6166 44.8442 53.0964 44.7539C52.6777 44.6753 52.2687 44.5522 51.8762 44.3865V42.4737C52.3426 42.6874 52.8284 42.856 53.3269 42.977C53.7904 43.1021 54.2675 43.1698 54.7474 43.1784C55.5857 43.1784 56.0052 42.9361 56.0058 42.4515C56.0093 42.3703 55.9962 42.2891 55.9675 42.213C55.9388 42.1369 55.895 42.0674 55.8387 42.0086C55.6663 41.8528 55.4724 41.7226 55.2629 41.622C54.9904 41.4784 54.6266 41.3106 54.1716 41.1186C53.6648 40.924 53.1829 40.6698 52.736 40.3616C52.4512 40.1542 52.2223 39.8796 52.0695 39.5622C51.9212 39.2124 51.8501 38.8346 51.8611 38.4548C51.8469 38.1135 51.9197 37.7742 52.0728 37.4688C52.2258 37.1634 52.454 36.902 52.736 36.7091C53.4805 36.2543 54.3467 36.0389 55.2176 36.092C56.2466 36.0941 57.2627 36.3216 58.1945 36.7585L57.4978 38.4256C57.0736 38.2437 56.677 38.0947 56.3079 37.9786C55.9428 37.8633 55.5622 37.8045 55.1793 37.8045C54.4974 37.8045 54.1565 37.989 54.1565 38.3582C54.1613 38.4684 54.1941 38.5757 54.2519 38.6698C54.3097 38.7638 54.3905 38.8416 54.4867 38.8958C54.9469 39.163 55.43 39.3887 55.9303 39.5703C56.4444 39.7633 56.933 40.0186 57.3851 40.3303C57.6738 40.54 57.9076 40.8163 58.0666 41.1357C58.2196 41.4734 58.2947 41.8413 58.2861 42.2119Z" fill="#002970"/>
<path d="M65.997 42.2119C66.0194 42.5916 65.9485 42.971 65.7906 43.3171C65.6327 43.6631 65.3925 43.9653 65.091 44.1972C64.2841 44.7076 63.3352 44.9464 62.3829 44.8787C61.855 44.886 61.3275 44.8442 60.8073 44.7539C60.3887 44.6752 59.9796 44.5521 59.5872 44.3864V42.4736C60.0536 42.6873 60.5394 42.8559 61.0379 42.977C61.5013 43.1021 61.9784 43.1697 62.4584 43.1784C63.2966 43.1784 63.7158 42.9361 63.7158 42.4515C63.7193 42.3703 63.7064 42.2892 63.6779 42.2131C63.6493 42.137 63.6057 42.0674 63.5497 42.0085C63.3773 41.8527 63.1833 41.7225 62.9738 41.622C62.7007 41.4783 62.3369 41.3105 61.8825 41.1186C61.3757 40.9239 60.8938 40.6698 60.4469 40.3615C60.1623 40.1541 59.9334 39.8795 59.7805 39.5622C59.6321 39.2123 59.561 38.8346 59.5721 38.4548C59.5578 38.1135 59.6307 37.7742 59.7837 37.4688C59.9368 37.1634 60.165 36.902 60.4469 36.7091C61.1915 36.2544 62.0577 36.039 62.9285 36.092C63.9579 36.094 64.9744 36.3214 65.9064 36.7584L65.2088 38.4256C64.7846 38.2437 64.3879 38.0947 64.0188 37.9786C63.6534 37.8631 63.2725 37.8044 62.8893 37.8044C62.2074 37.8044 61.8664 37.989 61.8664 38.3581C61.8711 38.4683 61.9038 38.5755 61.9614 38.6695C62.019 38.7636 62.0996 38.8414 62.1956 38.8957C62.6559 39.1629 63.139 39.3887 63.6393 39.5702C64.153 39.7603 64.6415 40.0125 65.094 40.3213C65.3829 40.5307 65.6167 40.8071 65.7755 41.1266C65.9308 41.4669 66.0065 41.838 65.997 42.2119Z" fill="#002970"/>
<path d="M22.8236 28.0062H0V29.612H22.8236V28.0062Z" fill="#002970"/>
<path d="M22.8236 26.4711H0V28.0768H22.8236V26.4711Z" fill="#00BAF2"/>
<path d="M65.9603 28.0062H43.1367V29.612H65.9603V28.0062Z" fill="#002970"/>
<path d="M65.9603 26.4711H43.1367V28.0768H65.9603V26.4711Z" fill="#00BAF2"/>
<path d="M65.4717 6.76822C65.1721 5.91273 64.6138 5.17158 63.8743 4.64742C63.1348 4.12325 62.2506 3.84202 61.3441 3.84265H61.3049C60.7159 3.84201 60.1329 3.96078 59.5912 4.19178C59.0494 4.42278 58.5601 4.76121 58.1528 5.18664C57.7456 4.76129 57.2565 4.42289 56.7149 4.19189C56.1733 3.96089 55.5905 3.84209 55.0017 3.84265H54.9624C53.9162 3.84155 52.9045 4.21714 52.1124 4.90073V4.56649C52.1012 4.40419 52.0289 4.25216 51.9101 4.14101C51.7913 4.02987 51.6348 3.96786 51.4721 3.96749H48.5526C48.4676 3.96749 48.3835 3.98424 48.305 4.01678C48.2265 4.04932 48.1552 4.09702 48.0952 4.15715C48.0352 4.21727 47.9876 4.28864 47.9552 4.36717C47.9227 4.4457 47.9061 4.52985 47.9063 4.61482V20.495C47.9063 20.6664 47.9744 20.8308 48.0956 20.952C48.2168 21.0732 48.3812 21.1413 48.5526 21.1413H51.4721C51.628 21.141 51.7786 21.0843 51.8959 20.9816C52.0133 20.8789 52.0895 20.7371 52.1104 20.5826V9.18538C52.1104 9.14712 52.1104 9.10887 52.1104 9.07061C52.1312 8.81325 52.2448 8.5722 52.4299 8.39223C52.6151 8.21227 52.8593 8.10561 53.1171 8.09207H53.6577C53.8824 8.10786 54.0971 8.19101 54.2738 8.33066C54.4006 8.43377 54.5023 8.56443 54.571 8.71271C54.6397 8.86099 54.6738 9.02298 54.6705 9.18639L54.6816 20.5282C54.6816 20.6997 54.7496 20.8642 54.8708 20.9856C54.992 21.107 55.1564 21.1753 55.3279 21.1756H58.2474C58.4141 21.1765 58.5747 21.1131 58.6957 20.9985C58.8167 20.8838 58.8887 20.7269 58.8968 20.5604V9.1733C58.8929 8.99333 58.9346 8.81531 59.0178 8.6557C59.101 8.49609 59.2232 8.36006 59.3729 8.26019C59.5343 8.15598 59.719 8.0937 59.9105 8.07898H60.4501C60.7282 8.09358 60.9896 8.21609 61.1788 8.42046C61.3679 8.62483 61.4698 8.89492 61.4629 9.1733L61.475 20.5C61.475 20.6715 61.5431 20.8359 61.6643 20.9571C61.7855 21.0783 61.9499 21.1464 62.1213 21.1464H65.0408C65.1258 21.1465 65.2099 21.1299 65.2885 21.0975C65.367 21.065 65.4384 21.0174 65.4985 20.9574C65.5586 20.8974 65.6063 20.8261 65.6389 20.7476C65.6714 20.6691 65.6882 20.585 65.6882 20.5V8.31858C65.714 7.79338 65.6388 7.2681 65.4667 6.77123" fill="#00BAF2"/>
<path d="M45.6749 4.00957H44.0027V1.29844C44.0031 1.22067 43.9881 1.14358 43.9587 1.0716C43.9292 0.999616 43.8858 0.934157 43.831 0.878975C43.7762 0.823793 43.7111 0.779972 43.6393 0.750026C43.5675 0.72008 43.4905 0.704599 43.4127 0.704468C43.3755 0.704906 43.3383 0.709293 43.302 0.717556C41.4466 1.22092 41.8201 3.79413 38.4344 4.0136H38.1052C38.0578 4.01369 38.0105 4.01909 37.9643 4.0297C37.8215 4.06208 37.694 4.14196 37.6026 4.25626C37.5111 4.37057 37.4612 4.51253 37.4609 4.65891V7.57843C37.4609 7.74994 37.529 7.91444 37.6502 8.03581C37.7714 8.15718 37.9358 8.2255 38.1073 8.22576H39.8721V20.6237C39.8719 20.7076 39.8883 20.7908 39.9203 20.8684C39.9524 20.946 39.9993 21.0165 40.0586 21.076C40.1179 21.1355 40.1883 21.1827 40.2658 21.2149C40.3433 21.2472 40.4264 21.2638 40.5103 21.264H43.4017C43.5713 21.2637 43.7339 21.1961 43.8538 21.0761C43.9736 20.956 44.0409 20.7933 44.0409 20.6237V8.22677H45.6789C45.7638 8.22664 45.8478 8.20979 45.9262 8.17719C46.0045 8.14459 46.0757 8.09687 46.1356 8.03676C46.1955 7.97665 46.243 7.90532 46.2754 7.82685C46.3077 7.74839 46.3243 7.66432 46.3242 7.57944V4.65992C46.3242 4.48877 46.2562 4.32463 46.1352 4.20361C46.0142 4.08259 45.85 4.0146 45.6789 4.0146" fill="#00BAF2"/>
<path d="M35.1556 4.00976H32.2361C32.0648 4.00976 31.9006 4.07772 31.7794 4.19871C31.6582 4.3197 31.59 4.48384 31.5897 4.65508V10.7025C31.5871 10.8822 31.5139 11.0536 31.3861 11.1797C31.2582 11.3059 31.0858 11.3768 30.9062 11.377H29.68C29.59 11.377 29.5009 11.3593 29.4178 11.3248C29.3346 11.2904 29.2591 11.2398 29.1955 11.1762C29.132 11.1125 29.0816 11.0369 29.0472 10.9537C29.0129 10.8706 28.9953 10.7814 28.9954 10.6914L28.9823 4.65105C28.982 4.47981 28.9138 4.31568 28.7926 4.19468C28.6715 4.07369 28.5072 4.00574 28.336 4.00574H25.4165C25.3316 4.00561 25.2475 4.02219 25.169 4.05455C25.0906 4.08691 25.0192 4.1344 24.9591 4.19433C24.899 4.25425 24.8513 4.32543 24.8187 4.40379C24.7861 4.48216 24.7693 4.56618 24.7691 4.65105V11.2774C24.7456 11.8496 24.8409 12.4206 25.0489 12.9542C25.2569 13.4879 25.5731 13.9727 25.9777 14.3781C26.3823 14.7836 26.8664 15.1008 27.3996 15.31C27.9328 15.5191 28.5036 15.6155 29.0759 15.5932C29.0759 15.5932 30.9656 15.5932 31.0239 15.6053C31.1908 15.6225 31.3454 15.7007 31.4581 15.8249C31.5708 15.9491 31.6337 16.1105 31.6347 16.2782C31.6357 16.4459 31.5747 16.6081 31.4635 16.7336C31.3523 16.8591 31.1986 16.9392 31.032 16.9584L30.9837 16.9664L26.7071 16.9825C26.5357 16.9825 26.3713 17.0506 26.2501 17.1718C26.1289 17.293 26.0608 17.4574 26.0608 17.6288V20.5484C26.0608 20.7198 26.1289 20.8842 26.2501 21.0054C26.3713 21.1266 26.5357 21.1947 26.7071 21.1947H31.4921C32.0646 21.2178 32.6356 21.1221 33.1693 20.9136C33.7029 20.7051 34.1876 20.3883 34.5928 19.9833C34.998 19.5782 35.3148 19.0936 35.5235 18.56C35.7321 18.0264 35.8279 17.4553 35.8049 16.8828V4.65508C35.8049 4.57025 35.7882 4.48625 35.7557 4.40789C35.7232 4.32954 35.6756 4.25835 35.6156 4.19841C35.5555 4.13848 35.4843 4.09097 35.4059 4.0586C35.3275 4.02623 35.2434 4.00963 35.1586 4.00976" fill="#002970"/>
<path d="M7.11132 4.00864H0.720586C0.552375 4.00864 0.39105 4.07546 0.272107 4.1944C0.153164 4.31335 0.0863403 4.47467 0.0863403 4.64288V7.50603C0.0858032 7.5097 0.0858032 7.51343 0.0863403 7.5171C0.0863403 7.53724 0.0863403 7.55033 0.0863403 7.56543V20.5271C0.0813189 20.6908 0.140192 20.85 0.250493 20.971C0.360795 21.092 0.513864 21.1653 0.67729 21.1754H3.65622C3.82763 21.1754 3.99202 21.1073 4.11323 20.9861C4.23444 20.8649 4.30254 20.7005 4.30254 20.5291L4.31361 16.0844H7.11132C7.63993 16.1099 8.16801 16.0245 8.66166 15.8337C9.15531 15.643 9.60359 15.3511 9.97771 14.9768C10.3518 14.6025 10.6435 14.154 10.834 13.6603C11.0245 13.1665 11.1096 12.6384 11.0839 12.1098V7.98221C11.1097 7.45332 11.0247 6.92487 10.8343 6.43076C10.6439 5.93665 10.3524 5.48779 9.97831 5.11298C9.60426 4.73817 9.15599 4.44569 8.66227 4.2543C8.16854 4.06291 7.64026 3.97683 7.11132 4.00159V4.00864ZM6.8546 9.35942V11.1635C6.8546 11.3451 6.78251 11.5194 6.65416 11.6479C6.5258 11.7765 6.35168 11.8488 6.17002 11.8491H4.31361V8.24497H6.17002C6.35168 8.24524 6.5258 8.31759 6.65416 8.44613C6.78251 8.57467 6.8546 8.7489 6.8546 8.93055V9.35942Z" fill="#002970"/>
<path d="M18.5204 4.02582H14.4643C14.2982 4.02063 14.1368 4.08115 14.015 4.19423C13.8933 4.30731 13.821 4.46384 13.814 4.62986V5.76646V5.78961C13.814 5.79666 13.814 5.80471 13.814 5.80471V7.3722C13.8205 7.54872 13.8968 7.71544 14.026 7.83584C14.1553 7.95623 14.327 8.02048 14.5036 8.01449H18.3664C18.5197 8.03459 18.6613 8.10715 18.7672 8.21982C18.8731 8.3325 18.9367 8.47836 18.9473 8.63263V9.00914C18.9384 9.15989 18.8771 9.30279 18.7739 9.4131C18.6708 9.52341 18.5323 9.59419 18.3825 9.61318H16.4697C15.9117 9.57181 15.3511 9.64629 14.8233 9.83194C14.2954 10.0176 13.8116 10.3104 13.4024 10.692C12.9931 11.0736 12.6671 11.5357 12.445 12.0492C12.2229 12.5628 12.1093 13.1168 12.1116 13.6764V17.0811C12.0809 17.6234 12.1659 18.166 12.361 18.6729C12.556 19.1799 12.8567 19.6395 13.2429 20.0214C13.6292 20.4033 14.0922 20.6986 14.6013 20.8879C15.1104 21.0771 15.654 21.156 16.1959 21.1191H21.4994C21.9413 21.1338 22.3711 20.9724 22.6941 20.6703C23.0171 20.3683 23.2069 19.9503 23.2219 19.5084V8.41517C23.2219 5.72518 21.8346 4.02582 18.5204 4.02582ZM18.9866 16.2314V16.6875C18.986 16.7237 18.982 16.7598 18.9745 16.7952C18.9685 16.8276 18.9594 16.8592 18.9473 16.8898C18.8974 17.0212 18.8081 17.1339 18.6917 17.2127C18.5753 17.2914 18.4374 17.3323 18.2969 17.3298H17.0798C16.9032 17.3358 16.7314 17.2713 16.6023 17.1507C16.4732 17.0301 16.3972 16.8631 16.3912 16.6865V16.1348V16.1147V14.6468V14.1848C16.3985 14.0089 16.475 13.843 16.6039 13.7231C16.7328 13.6032 16.9038 13.539 17.0798 13.5445H18.2979C18.4748 13.5388 18.6466 13.6034 18.7759 13.7241C18.9051 13.8449 18.9813 14.012 18.9876 14.1888L18.9866 16.2314Z" fill="#002970"/>
<path d="M30.045 25.5994H29.0906V25.2772C29.0906 24.952 29.2225 24.7608 29.6131 24.7608C29.7586 24.7624 29.9031 24.7854 30.0419 24.8292L30.2765 23.8275C29.9702 23.7411 29.6535 23.6967 29.3352 23.6956C29.1247 23.6751 28.9123 23.7011 28.713 23.7718C28.5137 23.8424 28.3324 23.956 28.1818 24.1045C28.0312 24.253 27.9151 24.4327 27.8416 24.631C27.7682 24.8293 27.7392 25.0413 27.7567 25.252V25.5994H27.0781V26.6011H27.7567V30.4055H29.0896V26.6011H30.044L30.045 25.5994ZM32.9484 30.4991C33.2726 30.5137 33.5962 30.4587 33.8974 30.3378C34.1985 30.2168 34.4703 30.0328 34.6945 29.7981C34.9186 29.5634 35.0899 29.2834 35.1968 28.977C35.3037 28.6705 35.3437 28.3448 35.3142 28.0216C35.3448 27.6978 35.3055 27.3713 35.1991 27.064C35.0927 26.7567 34.9216 26.4758 34.6973 26.2403C34.4731 26.0048 34.2009 25.8201 33.8992 25.6988C33.5975 25.5774 33.2732 25.5223 32.9484 25.5369C32.6235 25.5223 32.2993 25.5774 31.9976 25.6988C31.6958 25.8201 31.4237 26.0048 31.1994 26.2403C30.9752 26.4758 30.8041 26.7567 30.6976 27.064C30.5912 27.3713 30.552 27.6978 30.5826 28.0216C30.5531 28.3448 30.5931 28.6705 30.7 28.977C30.8069 29.2834 30.9782 29.5634 31.2023 29.7981C31.4264 30.0328 31.6982 30.2168 31.9994 30.3378C32.3006 30.4587 32.6242 30.5137 32.9484 30.4991ZM32.9544 29.4662C32.2819 29.4662 31.9376 28.8501 31.9376 28.0115C31.9376 27.1729 32.2819 26.5537 32.9544 26.5537C33.6269 26.5537 33.9612 27.1729 33.9612 28.0115C33.9612 28.8501 33.6148 29.4662 32.9544 29.4662ZM36.2716 30.4055H37.6045V27.6873C37.6004 27.5528 37.6243 27.4189 37.6747 27.2942C37.7251 27.1694 37.8009 27.0564 37.8972 26.9625C37.9936 26.8686 38.1085 26.7958 38.2345 26.7486C38.3605 26.7015 38.495 26.681 38.6294 26.6886C38.8192 26.6885 39.0083 26.7126 39.1921 26.7601V25.5772C39.0546 25.5467 38.9142 25.5309 38.7733 25.5299C38.5063 25.5261 38.246 25.614 38.0358 25.7788C37.8257 25.9437 37.6784 26.1757 37.6186 26.436H37.5683V25.5974H36.2716V30.4055Z" fill="#002970"/>
</svg>
