<svg width="170" height="80" viewBox="0 0 170 80" fill="none" xmlns="http://www.w3.org/2000/svg">
<rect width="170" height="80" rx="12" fill="white"/>
<path d="M99.7258 40.1C97.1443 41.8658 95.9965 44.3519 95.7219 47.2753C95.7022 47.4841 95.663 47.6901 95.6336 47.8962C95.6378 46.6012 95.6476 45.3091 95.6448 44.0156C95.6378 41.1006 94.0121 39.5703 90.9332 39.4427C89.194 39.3699 87.6581 39.6432 86.5551 41.0474C85.9539 41.8126 85.6652 42.6702 85.6666 43.633C85.6694 45.4801 85.6414 47.3286 85.626 49.1715C85.5825 47.4603 85.5363 45.7618 84.8916 44.1249C84.2414 42.474 83.2828 41.0796 81.6445 40.1729C81.6642 37.2355 81.6866 34.2981 81.7006 31.3607C81.7132 28.8424 83.657 26.921 86.3141 26.8944C89.2445 26.8663 92.1763 26.8761 95.1066 26.9168C97.8296 26.9546 99.7972 28.9643 99.7608 31.5261C99.7187 34.3836 99.7356 37.2425 99.7258 40.1Z" fill="#FFCA20"/>
<path d="M42.1749 54.8949C42.053 56.9074 41.6046 57.7636 39.7519 57.7636C38.3855 57.7286 38.8844 57.7286 37.518 57.7342C37.1733 57.7356 37.0177 57.6613 37.0219 57.2984C37.0597 53.7303 36.8411 50.1483 37.2784 46.6013C37.7773 42.5581 40.611 40.0244 44.8965 39.4582C45.8102 39.3377 46.7226 39.276 47.6447 39.2858C48.0091 39.29 48.1913 39.3475 48.1801 39.7609C48.1436 41.0824 48.1338 42.4054 48.152 43.7269C48.1576 44.1544 48.0021 44.2665 47.576 44.2595C46.7983 44.2455 46.0219 44.1922 45.2427 44.3366C43.4124 44.6743 42.4328 45.6931 42.2955 47.4729C42.2688 47.8149 42.231 48.1582 42.2282 48.5002C42.2198 49.7965 42.2254 51.0928 42.2254 52.3892" fill="black"/>
<path d="M93.5417 55.1935C93.5291 56.9257 92.258 58.2248 90.5973 58.229C88.9548 58.2346 87.6473 57.0084 87.6403 55.3014C87.6248 51.5204 87.6613 47.7393 87.7187 43.9583C87.7412 42.4615 89.102 41.2437 90.6365 41.2325C92.2033 41.2213 93.5459 42.4405 93.5837 44.0059C93.63 45.9091 93.5949 47.8136 93.5949 49.7181" fill="black"/>
<path d="M82.9729 22.3636C81.5785 21.1583 80.3691 20.1143 79.1624 19.066C78.8737 18.8151 78.592 18.9847 78.3005 19.0492C76.9664 19.3449 75.5846 18.8165 74.9679 17.7795C74.3387 16.72 74.5587 15.5106 75.5327 14.6879C76.5558 13.8233 78.3146 13.7658 79.4119 14.5604C80.5274 15.369 80.8427 16.6527 80.107 17.8005C79.8295 18.2335 79.936 18.4143 80.2724 18.6988C81.6051 19.8242 82.9154 20.9733 84.2328 22.1141C84.4416 22.2949 84.6911 22.393 84.9503 22.4981C85.6118 22.7658 85.9439 23.2703 85.836 23.9556C85.7295 24.6339 85.2712 25.116 84.5607 25.1286C82.2736 25.1692 79.9837 25.1636 77.6965 25.1118C76.8487 25.0921 76.2951 24.4293 76.3203 23.6837C76.347 22.9143 76.9566 22.3467 77.8731 22.3341C79.1834 22.3159 80.4952 22.3509 81.8069 22.3621C82.111 22.3664 82.4151 22.3636 82.9729 22.3636Z" fill="#FFCA20"/>
<path d="M98.1778 22.4841C99.924 22.4841 101.569 22.4799 103.213 22.4855C104.285 22.4883 104.972 23.0461 104.961 23.8869C104.951 24.6984 104.285 25.2617 103.259 25.2519C101.139 25.2309 99.0187 25.3234 96.8983 25.1959C96.1149 25.1482 95.6216 24.8119 95.459 24.1098C95.2937 23.3964 95.637 22.8765 96.3223 22.571C96.5816 22.4561 96.7932 22.2977 96.9922 22.1085C98.2339 20.9271 99.4699 19.7401 100.728 18.5755C101.045 18.2826 101.143 18.0528 100.965 17.6239C100.466 16.4159 100.895 15.2639 102.011 14.5843C103.153 13.8891 104.835 14.0363 105.816 14.9164C106.694 15.704 106.886 16.8868 106.299 17.8972C105.691 18.9441 104.197 19.6434 103.003 19.1599C101.992 18.7507 101.509 19.1333 100.915 19.7401C100.08 20.5936 99.1868 21.3952 98.3207 22.222C98.2871 22.2557 98.2731 22.3089 98.1778 22.4841Z" fill="#FFCA20"/>
<path d="M94.4319 22.173C94.4179 24.0649 92.6423 25.6121 90.4869 25.6121C88.3553 25.6121 86.5489 24.0313 86.5391 22.1576C86.5293 20.26 88.403 18.6288 90.5416 18.675C92.7208 18.7213 94.446 20.2727 94.4319 22.173Z" fill="#FFCA20"/>
<path d="M72.2399 55.7792C73.7002 57.3277 74.2846 57.7215 75.5865 58.0453C79.4054 58.994 82.8389 57.4076 84.5164 53.9335C85.248 52.4171 85.5184 50.8111 85.6263 49.1672C85.5871 48.4889 85.5941 47.8092 85.6165 47.1324C85.688 45.0442 84.9817 43.2027 83.6826 41.5505C83.1654 40.8932 82.5768 40.2948 81.6449 40.1715C79.2064 39.0237 76.653 38.7 74.0057 39.311C70.8679 40.0341 68.1814 41.3543 67.44 44.6953C67.255 45.5263 67.2396 46.3644 67.2368 47.215C67.227 49.9927 67.199 52.7717 67.1765 55.5493C67.1527 58.4587 67.1317 61.3681 67.0939 64.2774C67.0897 64.6278 67.2018 64.7357 67.5661 64.7231C68.2907 64.6992 69.018 64.7399 69.7426 64.7105C71.1244 64.653 72.1138 63.6538 72.125 62.328L72.2399 55.7792ZM79.837 51.9995C79.205 53.4037 78.032 54.1717 76.3657 54.1521C74.6419 54.1311 73.4984 53.2958 72.7893 51.858C72.3072 50.877 72.2665 49.8189 72.2161 48.8099C72.2833 47.6607 72.3114 46.5536 72.764 45.5039C73.3961 44.0366 74.5326 43.2027 76.1947 43.1551C77.8358 43.1089 79.1419 43.7689 79.809 45.2376C80.8265 47.4729 80.8447 49.7614 79.837 51.9995Z" fill="black"/>
<path d="M114.021 36.3876C114.022 35.2636 113.068 34.3289 111.879 34.1985C111.162 34.1201 110.43 34.1761 109.707 34.1299C109.173 34.0962 108.98 34.2448 108.998 34.7871C109.043 36.1087 109.012 37.433 109.012 38.7574C109.012 39.7594 109.012 40.6213 109.012 41.6247C107.687 40.0873 106.506 39.4034 104.146 39.1946C102.569 39.0545 101.106 39.395 99.7246 40.1028C99.0266 40.4643 99.0869 40.5792 98.7996 40.8189C97.8242 41.6289 97.188 42.6309 96.6218 43.7339C95.9085 45.1255 95.6506 46.3938 95.6338 47.8975C95.5455 49.3031 95.61 50.7074 95.9281 52.0808C96.5741 54.864 97.9237 57.1119 101.057 57.978C103.085 58.5385 105.142 58.6534 107.172 58.1714C111.648 57.1049 113.733 55.4161 113.897 50.9148C114.075 46.0756 114.016 41.2295 114.021 36.3876ZM108.39 52.0387C107.795 53.478 106.704 54.3174 105.054 54.3833C103.406 54.4478 102.09 53.8339 101.405 52.3708C100.364 50.1482 100.296 47.8568 101.3 45.6132C101.965 44.1248 103.2 43.319 104.986 43.4031C106.645 43.4816 107.865 44.3379 108.483 45.9005C108.839 46.8016 108.939 47.7447 108.968 48.7271C108.921 49.8343 108.832 50.9652 108.39 52.0387Z" fill="black"/>
<path d="M65.5926 44.2903C65.5912 42.0045 64.4504 40.3943 62.1843 39.6333C59.6547 38.7841 57.0397 38.6649 54.44 39.2213C52.0758 39.7286 50.4165 41.0768 49.7242 43.3625C49.5659 43.8881 49.6457 44.1221 50.31 44.0801C51.1999 44.024 52.0954 44.0703 52.9881 44.0646C53.7996 44.0604 54.6671 44.2454 55.1814 43.3513C55.2809 43.1775 55.5934 43.0836 55.8274 43.0164C57.1854 42.6254 58.5266 42.7375 59.8453 43.193C60.3625 43.3723 60.654 43.7451 60.7226 44.2594C60.7927 44.7934 60.5194 45.1816 60.0738 45.4605C59.4333 45.8613 58.7004 46.014 57.9548 46.1402C56.4497 46.3938 54.9011 46.4345 53.4408 46.9151C51.9791 47.3972 50.5525 47.955 49.7382 49.3172C47.5114 53.0422 49.7761 57.4287 54.22 58.0663C55.7882 58.2919 57.3452 58.1728 58.8896 57.9906C62.4128 57.5758 64.9788 55.7273 65.3515 52.6834C65.594 50.6962 65.5393 49.2037 65.594 47.7756C65.5926 46.4064 65.5926 45.3484 65.5926 44.2903ZM60.7619 49.9927C60.7521 52.9175 58.9807 54.5782 56.0741 54.3876C54.8436 54.3063 54.0532 53.6939 53.8809 52.6876C53.6791 51.5104 54.192 50.5771 55.2907 50.1062C56.0839 49.7657 56.9458 49.6704 57.7782 49.4714C58.3444 49.3368 58.9134 49.2093 59.4683 49.0439C60.7689 48.6543 60.7661 48.6459 60.7619 49.9927Z" fill="black"/>
<path d="M133.129 46.726C132.524 42.1503 129.362 39.3993 124.518 39.2774C120.371 39.1723 117.304 40.9941 116.07 44.3576C115.536 45.8108 115.257 47.3216 115.327 48.7398C115.327 49.0846 115.316 49.2976 115.328 49.5078C115.459 51.638 115.742 53.7597 117.16 55.5017C119.301 58.1308 122.329 58.7838 125.614 58.4643C129.417 58.0943 131.778 56.0118 132.793 52.5405C133.352 50.6289 133.39 48.6894 133.129 46.726ZM128.258 48.6417C128.264 49.903 128.132 51.0073 127.734 52.0612C126.862 54.368 124.491 55.2368 122.348 54.0708C121.603 53.6658 121.147 53.045 120.894 52.298C120.247 50.3991 120.117 48.4581 120.564 46.5101C121.035 44.4599 122.474 43.3569 124.484 43.4032C126.226 43.4438 127.671 44.7766 128.067 46.733C128.205 47.4085 128.313 48.091 128.258 48.6417Z" fill="black"/>
<path d="M87.6367 59.9556H89.2792C90.0276 59.9556 90.5713 60.0621 90.909 60.2765C91.2468 60.4895 91.4164 60.8301 91.4164 61.2953C91.4164 61.6121 91.3421 61.8713 91.1949 62.0731C91.0478 62.2749 90.8502 62.3983 90.6049 62.4389V62.4753C90.9399 62.5496 91.1809 62.6897 91.3281 62.8958C91.4766 63.1004 91.5495 63.3736 91.5495 63.7142C91.5495 64.1963 91.3757 64.5733 91.0282 64.8437C90.6806 65.1142 90.2083 65.2488 89.6113 65.2488H87.6367V59.9556ZM88.7551 62.0507H89.4053C89.708 62.0507 89.928 62.0045 90.064 61.9092C90.1999 61.8153 90.2686 61.6597 90.2686 61.4425C90.2686 61.2393 90.1943 61.0949 90.0472 61.0066C89.8986 60.9183 89.6646 60.8749 89.3451 60.8749H88.7565V62.0507H88.7551ZM88.7551 62.9406V64.3196H89.4838C89.7921 64.3196 90.0191 64.2608 90.1663 64.1416C90.3134 64.0239 90.3863 63.8431 90.3863 63.5993C90.3863 63.1606 90.0738 62.9406 89.4474 62.9406H88.7551Z" fill="black"/>
<path d="M94.082 65.2459V59.9541H95.2018V65.2459H94.082Z" fill="black"/>
<path d="M102.254 65.2459H100.983L99.5998 63.0162L99.1276 63.3568V65.2459H98.0078V59.9541H99.1276V62.3758L99.5676 61.7535L100.997 59.9555H102.239L100.397 62.2973L102.254 65.2459Z" fill="black"/>
<path d="M107.438 65.2459H104.398V59.9541H107.438V60.8734H105.518V62.0352H107.305V62.9546H105.518V64.3195H107.438V65.2459Z" fill="black"/>
<path d="M115.452 65.246H114.332V60.8889H112.898V59.9556H116.884V60.8889H115.45V65.246H115.452Z" fill="black"/>
<path d="M122.406 65.2459L122.024 63.986H120.1L119.717 65.2459H118.512L120.374 59.9331H121.742L123.612 65.2459H122.406ZM121.757 63.0457C121.404 61.9049 121.204 61.2589 121.16 61.1089C121.117 60.9589 121.083 60.8412 121.065 60.7543C120.985 61.0627 120.758 61.8264 120.383 63.0457H121.757Z" fill="black"/>
<path d="M130.021 65.2458H128.743L127.516 63.2446L126.288 65.2458H125.09L126.84 62.5173L125.202 59.9554H126.437L127.573 61.8586L128.689 59.9554H129.894L128.237 62.5789L130.021 65.2458Z" fill="black"/>
<path d="M132.164 65.2459V59.9541H133.284V65.2459H132.164Z" fill="black"/>
</svg>
