<svg width="170" height="80" viewBox="0 0 170 80" fill="none" xmlns="http://www.w3.org/2000/svg">
<rect width="170" height="80" rx="12" fill="white"/>
<path d="M71.0114 47.2882C71.86 48.1367 72.8628 48.561 74.0199 48.561C75.2156 48.561 76.2185 48.156 77.0477 47.3267C77.8963 46.4782 78.3206 45.4753 78.3206 44.2604V27.0193H82.679V44.2796C82.679 46.6517 81.8305 48.6767 80.1527 50.3931C78.417 52.0516 76.3727 52.9002 74.0392 52.9002C71.6478 52.9002 69.6229 52.0709 67.9258 50.3931L71.0114 47.2882Z" fill="#2F4254"/>
<path d="M91.5508 27.0193H95.8321V52.8809H91.5508V27.0193Z" fill="#2F4254"/>
<path d="M122.289 46.0732C120.592 47.7317 118.567 48.561 116.214 48.561C113.861 48.561 111.817 47.7317 110.101 46.0732C108.442 44.3568 107.613 42.3125 107.613 39.9597C107.613 37.6069 108.442 35.582 110.101 33.8849C111.817 32.1878 113.861 31.3585 116.214 31.3585C118.567 31.3585 120.592 32.207 122.289 33.8849C123.967 35.582 124.815 37.6069 124.815 39.9597C124.815 42.3125 123.967 44.3568 122.289 46.0732ZM125.336 30.8185C122.829 28.2921 119.782 27.0193 116.214 27.0193C112.608 27.0193 109.561 28.2921 107.092 30.8185C104.566 33.3642 103.293 36.3919 103.293 39.9597C103.293 43.5275 104.566 46.5746 107.092 49.0817C109.599 51.6273 112.646 52.8809 116.214 52.8809C119.782 52.8809 122.829 51.6081 125.336 49.0817C127.901 46.5939 129.174 43.5468 129.174 39.9597C129.174 36.3919 127.901 33.3642 125.336 30.8185Z" fill="#2F4254"/>
<path d="M49.1412 44.2604H56.7397L52.9404 36.6619L49.1412 44.2604ZM58.8996 48.561H47.0006L44.802 52.8809H40L52.9404 27L65.8809 52.8809H61.0788L58.8996 48.561Z" fill="#2F4254"/>
</svg>
