<svg width="170" height="80" viewBox="0 0 170 80" fill="none" xmlns="http://www.w3.org/2000/svg">
<rect width="170" height="80" rx="12" fill="white"/>
<path d="M54.2303 32.2721C52.9058 31.324 51.3012 30.8486 49.6741 30.9221C47.0096 30.9221 44.1409 31.9434 41.0768 33.9595L40.9969 34.0217L40.686 34.2171L40.4462 34.377C39.8281 34.8012 39.235 35.2609 38.6699 35.7536C37.3732 37.0148 35.8989 39.1019 36.0055 40.8871C36.0122 41.2382 36.0951 41.5836 36.2484 41.8995C36.4018 42.2154 36.6219 42.4943 36.8936 42.7167C37.457 43.1358 38.1457 43.3518 38.8475 43.3295C40.4386 43.1908 41.9675 42.6465 43.2883 41.7486L43.5103 41.6065L44.1232 41.198L44.3274 41.0559C45.9689 39.8446 47.76 38.8505 49.6563 38.0983C50.0877 37.9328 50.5444 37.8427 51.0063 37.8319C51.2009 37.8325 51.3947 37.8563 51.5836 37.9029C51.8645 37.9537 52.129 38.0715 52.3547 38.2462C52.5804 38.4209 52.7607 38.6474 52.8803 38.9065C53.096 39.5088 53.1829 40.1496 53.1355 40.7875C53.088 41.4255 52.9073 42.0464 52.605 42.6101C51.5765 44.6728 50.1166 46.4902 48.3241 47.939C47.4587 48.701 46.5184 49.3735 45.5176 49.9463H45.4376C45.0227 50.1928 44.5891 50.4066 44.1409 50.5857H44.0787C43.9572 50.6377 43.8327 50.6822 43.7057 50.7189C41.7518 51.2518 42.9419 49.5199 42.9419 49.5199C43.3889 49.0451 43.8666 48.6001 44.3718 48.1877C44.6383 47.9479 44.9136 47.6904 45.1889 47.4061L45.2511 47.344C45.4806 47.1677 45.6693 46.9439 45.8042 46.6879C45.9391 46.4319 46.017 46.1497 46.0327 45.8608C45.9608 45.4437 45.7423 45.066 45.4167 44.7957C45.091 44.5254 44.6795 44.3803 44.2564 44.3864H44.1676C43.3915 44.449 42.6563 44.7605 42.0715 45.2746C41.522 45.7289 41.0457 46.2651 40.6594 46.8644C40.1087 47.6904 39.0429 49.8042 40.1087 51.4828C40.3382 51.8258 40.6552 52.1013 41.0268 52.2808C41.3984 52.4604 41.8112 52.5375 42.2225 52.5041C43.0545 52.4678 43.8744 52.2907 44.6472 51.9801C45.8599 51.5152 47.0183 50.9196 48.1021 50.2038L48.3863 50.0262C49.5614 49.2879 50.6752 48.4563 51.7168 47.5394C53.9278 45.759 55.5879 43.3874 56.504 40.7006C57.0718 39.0961 57.1522 37.3593 56.7349 35.7092C56.3147 34.3123 55.4314 33.1 54.2303 32.2721Z" fill="#E40200"/>
<path d="M132.389 49.7508C130.56 49.6087 130.187 48.8093 130.187 47.4682V30.1493L125.746 30.8953V47.184C125.746 51.0386 127.842 52.6994 131.35 52.6994C131.917 52.6845 132.481 52.6251 133.038 52.5218V49.7597C132.822 49.7684 132.605 49.7654 132.389 49.7508Z" fill="#E40200"/>
<path d="M116.239 38.0982C118.193 38.0982 118.477 40.2209 118.477 41.5353H113.726C113.823 39.839 114.498 38.0982 116.239 38.0982ZM117.19 49.7419C116.72 49.7712 116.25 49.7 115.811 49.533C115.371 49.3661 114.972 49.1072 114.641 48.7738C113.85 47.8856 113.495 46.1537 113.593 44.2886H123.069V43.8534C122.989 37.6364 120.875 34.8209 116.239 34.8209C111.07 34.8209 109.054 39.5814 109.019 44.0488C108.967 45.4109 109.21 46.768 109.733 48.0268C110.256 49.2856 111.045 50.4161 112.047 51.3405C113.387 52.3763 115.044 52.9161 116.737 52.8681C117.796 52.8704 118.85 52.7148 119.863 52.4063C121.036 52.0373 122.149 51.4987 123.167 50.8076L121.923 48.2498C120.529 49.2075 118.881 49.7271 117.19 49.7419Z" fill="#E40200"/>
<path d="M80.4375 52.5041H84.8338V34.9987L80.4375 35.7181V52.5041Z" fill="#E40200"/>
<path d="M104.569 30.1671L100.066 30.8954V47.264C100.066 50.9321 102.207 52.664 105.795 52.664C106.358 52.6583 106.92 52.6048 107.474 52.5041V49.7775C107.42 49.7775 107.083 49.7775 106.834 49.7775C104.942 49.7153 104.569 48.6673 104.569 47.4683V38.2404H107.474V35.0075H104.569V30.1671Z" fill="#E40200"/>
<path d="M72.6786 49.2001C71.9867 49.6021 71.1959 49.8021 70.3961 49.7774C68.6198 49.7774 67.8293 48.4186 67.8648 46.8288C67.8601 46.4385 67.9382 46.0517 68.0938 45.6938C68.2495 45.3359 68.4792 45.015 68.7679 44.7524C69.0566 44.4897 69.3976 44.2912 69.7686 44.1699C70.1396 44.0487 70.532 44.0074 70.9201 44.0489H72.6964L72.6786 49.2001ZM70.9023 34.6877C68.8327 34.7315 66.8028 35.2641 64.9784 36.242L64.4899 36.4996L65.6622 39.164L66.3283 38.8443C67.6231 38.2121 69.0441 37.8811 70.4849 37.8762C72.0747 37.9384 72.7319 38.6755 72.7319 40.1943V41.0824H70.0763C65.8843 41.0824 63.282 43.3028 63.2109 46.7488C63.223 47.5846 63.4034 48.4094 63.7415 49.1739C64.0796 49.9383 64.5683 50.6268 65.1785 51.198C65.7888 51.7693 66.5079 52.2116 67.293 52.4986C68.0781 52.7856 68.913 52.9113 69.7477 52.8682C71.101 52.9213 72.4513 52.7061 73.7211 52.2351C74.9908 51.7641 76.1548 51.0466 77.146 50.1238V40.736C77.146 36.1798 73.8599 34.6877 70.8668 34.6877H70.9023Z" fill="#E40200"/>
<path d="M82.6892 28.0001C82.3195 27.9977 81.9529 28.0682 81.6104 28.2076C81.2679 28.3469 80.9563 28.5523 80.6932 28.8121C80.4301 29.0719 80.2207 29.381 80.0771 29.7217C79.9335 30.0623 79.8583 30.428 79.856 30.7977C79.8346 31.1778 79.8909 31.5582 80.0216 31.9158C80.1523 32.2733 80.3546 32.6004 80.616 32.877C80.8775 33.1537 81.1927 33.3741 81.5423 33.5247C81.8919 33.6753 82.2686 33.753 82.6492 33.753C83.0299 33.753 83.4066 33.6753 83.7562 33.5247C84.1058 33.3741 84.421 33.1537 84.6824 32.877C84.9439 32.6004 85.1462 32.2733 85.2769 31.9158C85.4076 31.5582 85.4639 31.1778 85.4425 30.7977C85.448 30.4447 85.3834 30.0941 85.2522 29.7663C85.1211 29.4385 84.9261 29.14 84.6787 28.8882C84.4256 28.6118 84.1184 28.3903 83.7762 28.2375C83.4339 28.0847 83.064 28.0039 82.6892 28.0001Z" fill="#E40200"/>
<path d="M88.3516 38.1338V52.5218H92.7923V38.9776C93.6491 38.2898 94.7052 37.8973 95.8031 37.8585C96.4014 37.8259 97.001 37.8889 97.5794 38.045L98.814 35.2651C97.8738 34.891 96.868 34.7098 95.8564 34.7322C94.438 34.748 93.0384 35.0585 91.7464 35.6441C90.4545 36.2297 89.2984 37.0776 88.3516 38.1338Z" fill="#E40200"/>
</svg>
