<svg width="170" height="80" viewBox="0 0 170 80" fill="none" xmlns="http://www.w3.org/2000/svg">
<rect width="170" height="80" rx="12" fill="white"/>
<path d="M141.975 30.2063C141.962 30.1638 141.949 30.1213 141.932 30.0789C131.867 30.0831 121.807 30.0789 111.746 30.0831C111.721 30.1128 111.704 30.1426 111.7 30.1808C111.7 37.9854 111.7 45.7856 111.695 53.5902C111.759 54.0065 111.988 54.3846 112.294 54.6693C112.307 54.6736 112.337 54.6777 112.35 54.682C112.507 54.8476 112.732 54.9285 112.944 55.0049C113.102 54.9964 113.255 55.0644 113.412 55.0474H125.902C126.021 55.0431 126.145 55.0644 126.259 55.0177C126.264 55.0008 126.268 54.971 126.272 54.954C126.276 54.9327 126.28 54.886 126.285 54.8605C126.552 53.3651 126.812 51.8653 127.096 50.3699L127.122 50.1787C125.966 50.1744 124.806 50.1787 123.651 50.1744C123.37 50.1659 123.082 50.1744 122.801 50.1403C122.321 50.1191 121.837 50.1361 121.357 50.0894C120.762 50.0894 120.171 50.0341 119.576 50.0341C119.109 49.9874 118.638 50.0044 118.166 49.9832C117.86 49.945 117.546 49.9619 117.236 49.9492C116.73 49.894 116.216 49.9322 115.71 49.877C115.175 49.8813 114.64 49.8345 114.104 49.8217C114.109 49.8175 114.113 49.8005 114.113 49.7962C114.291 49.8005 114.466 49.7878 114.644 49.7835C115.039 49.7325 115.439 49.7665 115.834 49.7112C116.246 49.7112 116.654 49.656 117.066 49.656C117.431 49.605 117.801 49.6348 118.166 49.5838C118.595 49.5838 119.016 49.5286 119.445 49.5243C119.797 49.4776 120.154 49.5031 120.507 49.4563C120.919 49.4606 121.327 49.3968 121.739 49.4011C122.143 49.3543 122.555 49.367 122.958 49.3245C122.92 49.1675 122.89 49.0102 122.856 48.853C122.827 48.7553 122.708 48.7765 122.631 48.7637C121.709 48.6319 120.792 48.5004 119.874 48.3729C119.933 48.3261 120.014 48.3473 120.082 48.3389C120.796 48.2836 121.505 48.2199 122.219 48.1689C122.381 48.1605 122.538 48.1307 122.699 48.1265C122.627 47.9056 122.585 47.6634 122.487 47.4595C120.962 47.2258 119.436 47.0176 117.915 46.7669C118.311 46.7032 118.71 46.6735 119.105 46.631L119.139 46.6182C120.401 46.4864 121.667 46.3377 122.929 46.2146C124.53 46.2062 126.128 46.2103 127.729 46.2146C127.78 46.2062 127.87 46.2315 127.878 46.1593C128.01 45.4711 128.137 44.7829 128.269 44.0946C128.452 43.1387 128.741 42.1955 129.187 41.3246C129.888 39.9226 130.997 38.733 132.347 37.9428C133.609 37.2035 135.071 36.8467 136.524 36.7787C136.995 36.7362 137.471 36.749 137.939 36.8084C138.244 36.8807 138.559 36.9656 138.801 37.1738C139.001 37.3352 139.12 37.5732 139.209 37.8111C139.404 38.3761 139.515 38.9624 139.608 39.553C139.613 39.7909 139.655 40.0586 139.528 40.2752C139.409 40.4877 139.171 40.5896 138.946 40.6533C138.126 40.8658 137.267 40.666 136.447 40.8658C135.772 41.0102 135.143 41.384 134.714 41.9237C134.208 42.5524 133.941 43.334 133.792 44.1159C133.677 44.8126 133.533 45.5094 133.418 46.2104C134.225 46.2147 135.037 46.2061 135.848 46.2147C136.171 46.2147 136.503 46.3931 136.634 46.6989C136.804 47.0899 136.766 47.5317 136.711 47.9438C136.643 48.4069 136.532 48.8657 136.324 49.2905C136.15 49.6517 135.861 49.9831 135.466 50.1106C135.262 50.1913 135.041 50.1743 134.824 50.1743C134.111 50.1743 133.397 50.1827 132.683 50.1743C132.568 50.6969 132.492 51.2322 132.39 51.7632C132.203 52.7956 132.02 53.8322 131.833 54.8689C131.829 54.9029 131.825 54.9751 131.825 55.0133C132.161 55.0303 132.496 55.0134 132.832 55.0218C135.322 55.0218 137.815 55.0175 140.309 55.0218C140.577 55.0303 140.849 54.9666 141.083 54.8349C141.223 54.7839 141.308 54.6607 141.431 54.5928C141.55 54.5248 141.584 54.3847 141.686 54.2954C141.796 54.0999 141.911 53.8961 141.919 53.6665C141.932 53.6665 141.966 53.6623 141.983 53.6581C141.97 45.8409 141.983 38.0236 141.975 30.2063Z" fill="url(#paint0_linear)" stroke="#FCD109" stroke-width="0.00399361"/>
<path d="M115.657 25.0655C116.018 24.9508 116.396 25.0272 116.766 25.0018C123.703 25.006 130.641 25.0018 137.579 25.0018C137.991 24.9848 138.352 25.2184 138.735 25.3374C139.04 25.4606 139.359 25.5583 139.665 25.69C139.729 25.7155 139.775 25.7707 139.822 25.8175C139.818 26.3783 139.822 26.9433 139.822 27.5084C139.826 27.6571 139.801 27.81 139.852 27.9545C139.941 27.9672 139.988 28.0352 140.047 28.0904C140.328 28.2179 140.566 28.4261 140.821 28.596C141.203 28.8679 141.611 29.1058 141.985 29.3862C142.002 29.4967 141.989 29.6114 141.955 29.7134C141.917 29.8323 141.942 29.9598 141.929 30.0787C131.865 30.083 121.804 30.0787 111.744 30.083C111.722 29.9428 111.761 29.8026 111.701 29.6709C111.693 29.5604 111.654 29.416 111.761 29.3395C112.185 29.0421 112.636 28.7744 113.052 28.4601C113.311 28.2944 113.562 28.1244 113.813 27.9545C113.864 27.8695 113.847 27.7633 113.847 27.6698C113.847 27.0538 113.847 26.4378 113.851 25.8217C113.995 25.6348 114.246 25.6135 114.446 25.5201C114.849 25.3671 115.257 25.2184 115.657 25.0655ZM115.682 25.1377C115.138 25.3459 114.59 25.5456 114.046 25.7537C113.974 25.7665 113.936 25.8302 113.898 25.8854C113.902 25.9194 113.906 25.9789 113.906 26.0129C113.902 26.5227 113.906 27.0325 113.902 27.5424C113.906 27.6698 113.889 27.7973 113.936 27.912C113.881 27.9672 113.821 28.0225 113.753 28.0649C113.137 28.4643 112.542 28.8976 111.926 29.2928C111.82 29.3565 111.701 29.4415 111.735 29.5817C111.714 29.6581 111.752 29.7219 111.833 29.7006C113.167 29.6921 114.497 29.7091 115.831 29.6879C117.815 29.6879 119.795 29.6921 121.779 29.6879L121.808 29.6751C121.898 29.6964 121.987 29.6879 122.08 29.6879C125.675 29.6879 129.269 29.6921 132.867 29.6879C133.997 29.6921 135.132 29.6879 136.266 29.6879C138.135 29.6879 140.009 29.7049 141.878 29.6964C141.934 29.6836 141.951 29.6454 141.929 29.5774C141.925 29.5094 141.951 29.416 141.878 29.3735C141.581 29.2333 141.326 29.0166 141.041 28.8467C140.94 28.7617 140.808 28.715 140.731 28.6003C140.438 28.4346 140.166 28.2306 139.877 28.0479C139.822 28.014 139.78 27.9587 139.733 27.912C139.758 27.8228 139.767 27.7251 139.767 27.6316C139.763 27.092 139.767 26.5525 139.763 26.0129C139.775 25.9279 139.771 25.8302 139.695 25.775C139.185 25.5923 138.679 25.3969 138.174 25.2099C138.016 25.1335 137.842 25.091 137.672 25.0655H115.958C115.865 25.0697 115.776 25.1165 115.682 25.1377Z" fill="#F8F3B5" stroke="#F8F3B5" stroke-width="0.00399361"/>
<path d="M113.907 26.0129C114.281 26.1701 114.68 26.2594 115.058 26.4123C115.262 26.493 115.326 26.7139 115.415 26.8924C115.326 26.9816 115.219 27.0538 115.113 27.1218C114.722 27.3852 114.323 27.6401 113.936 27.912C113.89 27.7973 113.907 27.6699 113.902 27.5424C113.907 27.0326 113.902 26.5228 113.907 26.0129ZM138.612 26.4123C138.99 26.2636 139.385 26.1616 139.763 26.0129C139.767 26.5525 139.763 27.0921 139.767 27.6316C139.767 27.7251 139.759 27.8228 139.733 27.912C139.402 27.6826 139.066 27.4659 138.735 27.2408C138.574 27.1218 138.395 27.0326 138.251 26.8881C138.34 26.7097 138.408 26.493 138.612 26.4123Z" fill="#F7B402" stroke="#F7B402" stroke-width="0.00399361"/>
<path d="M120.39 26.5866C120.857 26.4762 121.38 26.8925 121.342 27.3811C121.346 27.8612 120.84 28.2521 120.377 28.1416C120.19 28.0779 120.012 27.9802 119.897 27.8145C119.749 27.5893 119.715 27.2876 119.834 27.0412C119.919 26.8033 120.148 26.6419 120.39 26.5866ZM132.511 26.8543C132.707 26.6376 133.017 26.5144 133.306 26.5909C133.522 26.6546 133.735 26.7948 133.828 27.0072C134.015 27.3726 133.871 27.8654 133.505 28.0566C133.182 28.2351 132.775 28.1501 132.528 27.8909C132.278 27.6063 132.26 27.1389 132.511 26.8543Z" fill="#BDA727" stroke="#BDA727" stroke-width="0.00399361"/>
<path d="M115.114 27.1219C115.22 27.0539 115.326 26.9817 115.416 26.8924L115.445 26.9222C115.475 27.1431 115.454 27.3683 115.462 27.5892C115.45 28.252 115.475 28.919 115.445 29.5817C114.209 29.5817 112.973 29.5732 111.736 29.5817C111.702 29.4415 111.821 29.3566 111.928 29.2928C112.544 28.8977 113.138 28.4644 113.754 28.065C113.822 28.0225 113.882 27.9673 113.937 27.9121C114.324 27.6402 114.723 27.3853 115.114 27.1219ZM138.209 27.0369C138.209 26.9817 138.222 26.9349 138.251 26.8882C138.396 27.0326 138.574 27.1219 138.736 27.2408C139.067 27.466 139.403 27.6827 139.734 27.9121C139.781 27.9588 139.823 28.014 139.878 28.048C140.167 28.2307 140.439 28.4346 140.732 28.6003C140.809 28.715 140.941 28.7618 141.043 28.8468C141.327 29.0167 141.582 29.2334 141.88 29.3736C141.952 29.4161 141.926 29.5095 141.931 29.5775C140.694 29.5817 139.462 29.5732 138.226 29.5817C138.205 29.4118 138.217 29.2419 138.213 29.0762C138.213 28.3964 138.205 27.7166 138.209 27.0369Z" fill="#F7E62D" stroke="#F7E62D" stroke-width="0.00399361"/>
<path d="M141.931 29.5776C140.694 29.5819 139.462 29.5734 138.226 29.5819C138.205 29.4119 138.217 29.242 138.213 29.0763C138.213 28.3965 138.205 27.7168 138.209 27.037C138.209 26.9818 138.222 26.935 138.251 26.8883C138.341 26.7099 138.409 26.4932 138.612 26.4125C138.991 26.2638 139.386 26.1618 139.764 26.0131C139.777 25.9281 139.772 25.8304 139.696 25.7752C139.186 25.5925 138.681 25.3971 138.175 25.2101C138.018 25.1337 137.844 25.0912 137.674 25.0657H115.959C115.866 25.0699 115.777 25.1167 115.683 25.1379C115.139 25.3461 114.591 25.5458 114.048 25.7539C113.975 25.7667 113.937 25.8304 113.899 25.8856C113.903 25.9196 113.907 25.9791 113.907 26.0131C114.281 26.1703 114.68 26.2595 115.059 26.4125C115.263 26.4932 115.326 26.7141 115.416 26.8925L115.445 26.9223C115.475 27.1432 115.454 27.3684 115.462 27.5893C115.449 28.2521 115.475 28.9191 115.445 29.5819C114.209 29.5819 112.973 29.5734 111.736 29.5819C111.715 29.6583 111.753 29.7221 111.834 29.7008C113.168 29.6923 114.498 29.7093 115.832 29.6881C117.816 29.6881 119.796 29.6923 121.78 29.6881L121.81 29.6753C121.899 29.6966 121.988 29.6881 122.081 29.6881C125.676 29.6881 129.27 29.6923 132.868 29.6881C133.999 29.6923 135.133 29.6881 136.267 29.6881C138.137 29.6881 140.01 29.7051 141.88 29.6966C141.935 29.6838 141.952 29.6456 141.931 29.5776ZM119.834 27.0412C119.919 26.8033 120.148 26.6419 120.391 26.5866C120.858 26.4762 121.381 26.8925 121.342 27.3811C121.347 27.8612 120.841 28.2521 120.378 28.1416C120.191 28.0779 120.012 27.9802 119.898 27.8145C119.749 27.5893 119.715 27.2877 119.834 27.0412ZM132.512 26.8543C132.707 26.6376 133.017 26.5144 133.306 26.5909C133.523 26.6546 133.735 26.7948 133.829 27.0072C134.016 27.3726 133.871 27.8655 133.506 28.0566C133.183 28.2351 132.775 28.1501 132.529 27.8909C132.278 27.6063 132.261 27.139 132.512 26.8543Z" fill="url(#paint1_radial)" stroke="#FCD109" stroke-width="0.00399361"/>
<path d="M133.594 31.4447C133.654 31.4574 133.285 31.0901 133.357 31.0731C133.425 31.0816 133.683 30.8815 133.994 31.0448C134.306 31.208 134.229 31.59 134.193 31.7316C134.151 31.9002 134.044 32.0078 133.959 32.0928C133.912 32.131 133.807 32.1905 133.744 32.1862C133.782 31.978 133.659 31.9441 133.65 31.7316L133.594 31.4447Z" fill="url(#paint2_linear)" stroke="#FCD109" stroke-width="0.00399361"/>
<path d="M120.012 31.675C120.003 31.8874 119.88 31.9214 119.918 32.1296C119.854 32.1339 119.75 32.0744 119.703 32.0361C119.618 31.9512 119.511 31.8436 119.469 31.675C119.433 31.5334 119.356 31.1514 119.667 30.9882C119.979 30.8249 120.237 31.0249 120.305 31.0165C120.377 31.0335 120.008 31.4008 120.067 31.3881L120.012 31.675Z" fill="url(#paint3_linear)" stroke="#FCD109" stroke-width="0.00399361"/>
<path d="M133.04 34.1661C133.104 34.1106 133.147 34.1106 133.232 34.1106C132.722 35.2152 132.127 36.3198 131.233 37.1799C131.137 37.2652 131.036 37.3444 130.93 37.4168C130.828 37.4917 130.728 37.562 130.628 37.6336C130.53 37.7014 130.433 37.7697 130.339 37.8408C130.096 37.9725 129.884 38.1553 129.616 38.236C129.128 38.4696 128.601 38.6268 128.07 38.7373C127.862 38.7713 127.649 38.8222 127.437 38.8265C127.173 38.903 126.893 38.8477 126.625 38.8647C126.477 38.8902 126.345 38.8053 126.201 38.8222C126.075 38.8045 125.95 38.7833 125.826 38.7585C125.7 38.7327 125.575 38.703 125.45 38.6693C123.503 38.0617 121.591 36.5747 121.034 34.5637C121.009 34.4283 120.996 34.2908 120.996 34.1531C121.056 34.272 121.117 34.3901 121.181 34.5072C121.973 36.2349 123.545 37.5944 125.402 38.0043C125.553 38.0731 125.716 38.049 125.861 38.1085C125.992 38.1085 126.12 38.1042 126.247 38.1467C126.685 38.1551 127.123 38.1509 127.56 38.1509C127.619 38.1552 127.675 38.1254 127.734 38.1127C128.464 38.088 129.178 37.8891 129.844 37.5874C129.977 37.5271 130.108 37.4626 130.237 37.3947C130.349 37.3353 130.46 37.271 130.567 37.2019C130.672 37.134 130.774 37.0618 130.873 36.9854C131.66 36.3623 132.34 35.5551 132.801 34.6268C132.889 34.4598 132.969 34.3051 133.04 34.1661Z" fill="#BDA727" stroke="#BDA727" stroke-width="0.00399361"/>
<path d="M132.348 37.9428C133.61 37.2035 135.071 36.8467 136.524 36.7787C136.996 36.7362 137.472 36.7489 137.939 36.8084C138.245 36.8806 138.559 36.9656 138.802 37.1738C138.678 37.1823 138.559 37.1271 138.436 37.1101C138.088 37.0421 137.727 37.0676 137.374 37.0591C136.35 37.0591 135.318 37.1398 134.328 37.4202C133.81 37.5774 133.291 37.7601 132.82 38.032C132.004 38.4823 131.269 39.0771 130.674 39.7909C129.612 41.0103 128.988 42.5567 128.686 44.1329C128.541 44.9783 128.376 45.8195 128.244 46.6692C128.032 46.6904 127.815 46.6777 127.603 46.6777C126.668 46.6734 125.733 46.6692 124.798 46.6608C124.599 46.6692 124.403 46.6225 124.204 46.6352C122.504 46.6437 120.805 46.631 119.105 46.631L119.139 46.6182C120.401 46.4864 121.667 46.3377 122.929 46.2146C124.531 46.2061 126.128 46.2102 127.73 46.2146C127.781 46.2061 127.87 46.2315 127.879 46.1593C128.01 45.4711 128.138 44.7829 128.269 44.0945C128.452 43.1387 128.741 42.1955 129.187 41.3246C129.888 39.9225 130.997 38.733 132.348 37.9428Z" fill="#0D69B3" stroke="#0D69B3" stroke-width="0.00399361"/>
<path d="M134.324 37.4202C135.314 37.1398 136.347 37.0591 137.37 37.0591C137.723 37.0676 138.084 37.0421 138.433 37.1101C138.556 37.1271 138.675 37.1823 138.798 37.1738C138.998 37.3352 139.117 37.5732 139.206 37.8111C139.401 38.3761 139.512 38.9624 139.605 39.553C139.609 39.7909 139.652 40.0585 139.524 40.2752C139.406 40.4876 139.168 40.5896 138.942 40.6533C138.122 40.8658 137.264 40.666 136.444 40.8658C135.769 41.0102 135.14 41.384 134.711 41.9236C134.205 42.5524 133.938 43.334 133.789 44.1159C133.674 44.8126 133.53 45.5094 133.415 46.2104C133.364 46.3676 133.334 46.5375 133.305 46.7033C134.108 46.7161 134.911 46.7033 135.714 46.7117C136.019 46.7033 136.325 46.7202 136.631 46.6989C136.801 47.0898 136.763 47.5317 136.708 47.9438C136.64 48.4069 136.529 48.8657 136.321 49.2905C136.147 49.6517 135.858 49.9831 135.463 50.1105C135.259 50.1913 135.038 50.1743 134.821 50.1743C134.108 50.1743 133.394 50.1827 132.68 50.1743C132.565 50.6969 132.489 51.2322 132.387 51.7632C132.2 52.7956 132.017 53.8322 131.83 54.8689C131.826 54.9029 131.822 54.9751 131.822 55.0133V55.0176C129.965 55.0176 128.113 55.0219 126.256 55.0176C126.261 55.0007 126.265 54.9708 126.269 54.9539C126.273 54.9326 126.278 54.8859 126.282 54.8604C126.286 54.8945 126.29 54.9582 126.295 54.9879C126.409 55.0007 126.618 55.0601 126.647 54.8945C126.936 53.331 127.204 51.759 127.501 50.1955C127.387 50.17 127.268 50.17 127.149 50.1913C127.132 50.2507 127.115 50.3102 127.093 50.3697L127.119 50.1785C125.963 50.1741 124.803 50.1785 123.648 50.1741C123.367 50.1658 123.079 50.1741 122.798 50.1402C122.318 50.119 121.834 50.1359 121.354 50.0892C120.759 50.0892 120.168 50.034 119.574 50.034C119.106 49.9872 118.635 50.0042 118.163 49.983C117.857 49.9448 117.543 49.9617 117.233 49.949C116.727 49.8937 116.213 49.9321 115.708 49.8767C115.172 49.8811 114.637 49.8343 114.102 49.8216C114.106 49.8173 114.11 49.8003 114.11 49.7961C114.288 49.8003 114.463 49.7875 114.641 49.7833C115.036 49.7323 115.436 49.7663 115.831 49.7111C116.243 49.7111 116.651 49.6558 117.063 49.6558C117.428 49.6049 117.798 49.6346 118.163 49.5836C118.592 49.5836 119.013 49.5284 119.442 49.5242C119.795 49.4774 120.151 49.5029 120.504 49.4562C120.916 49.4604 121.324 49.3967 121.736 49.4009C122.14 49.3541 122.552 49.3669 122.955 49.3244C122.917 49.1672 122.887 49.0101 122.854 48.8528C122.824 48.7551 122.705 48.7763 122.628 48.7636C121.706 48.6318 120.789 48.5001 119.871 48.3727C119.931 48.3259 120.011 48.3471 120.079 48.3387C120.793 48.2834 121.502 48.2197 122.216 48.1688C122.378 48.1603 122.535 48.1306 122.696 48.1263C122.624 47.9053 122.582 47.6632 122.484 47.4593C120.959 47.2256 119.433 47.0174 117.912 46.7668C118.308 46.7031 118.707 46.6733 119.102 46.6308C120.801 46.6308 122.501 46.6436 124.2 46.635C124.4 46.6223 124.595 46.6691 124.795 46.6606C125.73 46.6691 126.664 46.6734 127.599 46.6775C127.812 46.6775 128.028 46.6903 128.241 46.6691C128.372 45.8194 128.538 44.9781 128.682 44.1327C128.984 42.5565 129.609 41.0101 130.671 39.7908C131.266 39.077 132.001 38.4822 132.816 38.0319C133.288 37.7601 133.806 37.5774 134.324 37.4202Z" fill="#107BD4" stroke="#107BD4" stroke-width="0.00399361"/>
<path d="M133.418 46.2102C134.226 46.2145 135.037 46.206 135.849 46.2145C136.171 46.2145 136.503 46.3929 136.635 46.6988C136.329 46.72 136.023 46.7031 135.717 46.7116C134.914 46.7031 134.111 46.7159 133.308 46.7031C133.338 46.5374 133.367 46.3674 133.418 46.2102ZM127.152 50.1911C127.271 50.1699 127.39 50.1699 127.504 50.1954C127.207 51.7589 126.939 53.3308 126.651 54.8943C126.621 55.0599 126.413 55.0005 126.298 54.9877C126.294 54.958 126.289 54.8943 126.285 54.8603C126.553 53.3648 126.812 51.8651 127.097 50.3696C127.118 50.31 127.135 50.2506 127.152 50.1911Z" fill="#0D69B3" stroke="#0D69B3" stroke-width="0.00399361"/>
<path d="M133.793 31.5633C133.759 31.4995 133.755 31.4231 133.755 31.3508L133.72 31.3551C133.67 31.1681 133.512 30.9897 133.308 30.9812C133.155 30.9685 132.964 30.9727 132.875 31.1172C132.705 31.3466 132.786 31.6397 132.777 31.8989C132.777 31.9159 132.782 31.9456 132.782 31.9626C132.782 32.1368 132.76 32.3067 132.731 32.4767C132.705 32.5277 132.692 32.5829 132.692 32.6424C132.62 33.0417 132.476 33.4368 132.28 33.798C132.242 33.849 132.212 33.9042 132.2 33.9637C132.072 34.1846 131.919 34.3885 131.762 34.5924C131.737 34.6137 131.715 34.6392 131.694 34.6647C131.584 34.8006 131.465 34.9153 131.341 35.0343C131.312 35.0513 131.29 35.0725 131.265 35.0895C131.121 35.2297 130.959 35.3614 130.785 35.4676C130.764 35.4804 130.742 35.4974 130.717 35.5144C129.629 36.2324 128.308 36.5298 127.021 36.5425C125.929 36.5765 124.828 36.3428 123.843 35.8713C123.826 35.8628 123.783 35.8458 123.766 35.8373C123.601 35.748 123.431 35.6716 123.278 35.5611C123.244 35.5441 123.21 35.5229 123.171 35.5059C123.014 35.4124 122.866 35.3104 122.725 35.1915C122.679 35.149 122.628 35.115 122.577 35.0768C122.424 34.9536 122.266 34.8219 122.135 34.6732C122.101 34.6349 122.067 34.6009 122.033 34.567C121.57 34.0869 121.209 33.5006 121.018 32.8633C120.835 32.3577 120.86 31.8054 120.839 31.2744C120.686 31.0407 120.363 30.909 120.108 31.0534C120.002 31.1299 119.989 31.2701 119.909 31.3678C119.777 32.7698 120.376 34.1676 121.332 35.1787C121.332 35.2127 121.349 35.234 121.379 35.2467C121.549 35.4039 121.714 35.5654 121.884 35.7183C121.914 35.748 121.948 35.7778 121.986 35.8033C122.156 35.9435 122.339 36.0709 122.517 36.2026C122.551 36.2281 122.585 36.2494 122.624 36.2706C122.857 36.4066 123.078 36.568 123.329 36.6615C123.346 36.6742 123.376 36.6955 123.392 36.704C124.2 37.0906 125.071 37.354 125.963 37.439C126.061 37.439 126.158 37.4475 126.256 37.4687C126.681 37.4942 127.106 37.4814 127.531 37.4729C128.843 37.3582 130.199 37.0396 131.295 36.2664L131.307 36.2834C131.341 36.2536 131.371 36.2281 131.405 36.2026C131.579 36.0752 131.749 35.9392 131.919 35.799C131.958 35.7693 132 35.7353 132.038 35.6971C132.225 35.4931 132.442 35.3062 132.599 35.0725L132.625 35.0853C132.637 35.064 132.659 35.0215 132.671 35.0003C132.816 34.8049 132.948 34.6009 133.075 34.397C133.083 34.3843 133.105 34.363 133.113 34.3503L133.096 34.3333C133.109 34.3163 133.139 34.2823 133.152 34.2653C133.385 33.7895 133.593 33.2924 133.666 32.7656C133.695 32.7528 133.712 32.7273 133.712 32.6976C133.717 32.5277 133.776 32.3662 133.759 32.1963C133.797 31.9881 133.801 31.7757 133.793 31.5633Z" fill="white" stroke="white" stroke-width="0.00399361"/>
<path d="M133.881 31.335C133.215 31.3749 132.59 31.1469 131.984 30.9385M119.578 31.42C119.923 31.528 120.714 31.2562 120.938 31.5049L119.578 31.42ZM119.776 32.4679C120.106 32.3531 120.814 32.0812 121.108 32.2413L119.776 32.4679ZM120.116 33.5159C120.276 33.5675 120.59 33.2873 120.747 33.2051C120.979 33.0829 121.217 32.9892 121.476 32.9494L120.116 33.5159ZM120.626 34.6205C120.791 34.3867 120.988 34.1925 121.225 34.0263C121.461 33.8618 122.106 33.422 122.382 33.5725L120.626 34.6205ZM121.108 35.4136C121.294 35.2651 121.37 35.0024 121.567 34.8464C121.804 34.6577 122.167 34.6239 122.41 34.5072L121.108 35.4136ZM121.908 36.0012C121.964 35.5905 122.381 35.0948 122.779 35.1303L121.908 36.0012ZM122.524 36.5748C122.734 36.5537 122.912 36.083 123.054 35.9235C123.267 35.6845 123.488 35.611 123.77 35.5268L122.524 36.5748ZM123.742 37.0846C123.728 36.7874 124.035 35.9352 124.393 35.98L123.742 37.0846ZM124.648 37.3679C124.633 37.0166 124.815 35.9601 125.243 35.9234L124.648 37.3679ZM125.583 37.9343C125.501 37.4431 125.507 36.7325 125.894 36.3765L125.583 37.9343ZM126.744 38.0477C126.701 37.6382 126.294 36.8104 126.744 36.4899V38.0477ZM127.99 37.7644C127.796 37.5392 127.683 36.6508 127.764 36.4049L127.99 37.7644ZM129.18 37.5661C129.03 37.2941 128.844 37.0386 128.788 36.7228C128.754 36.5341 128.813 36.2653 128.783 36.1216L129.18 37.5661ZM130.171 37.1413C129.846 36.9287 129.756 36.1475 129.86 35.8101L130.171 37.1413ZM131.134 36.7164C130.903 36.2206 130.656 35.8361 130.653 35.2719L131.134 36.7164ZM132.069 35.8101C131.71 35.5685 131.251 35.1293 131.304 34.6488L132.069 35.8101ZM133.06 35.0454C132.514 34.9244 131.859 34.4362 131.531 33.9974L133.06 35.0454ZM133.513 34.1107C133.12 34.0263 131.819 33.5188 131.899 33.0061L133.513 34.1107ZM133.938 33.1194C133.39 32.9183 132.592 32.7375 132.154 32.3546L133.938 33.1194ZM134.221 32.213C133.876 32.2426 133.381 32.0753 133.03 32.0147C132.64 31.9475 132.278 31.8161 131.899 31.7315L134.221 32.213Z" stroke="#D1D1D1" stroke-width="0.0849704"/>
<path d="M48.6177 33.3776C49.2335 33.2847 49.942 33.2266 50.4647 33.6099C50.7899 33.8538 50.9061 34.2951 50.8828 34.6902C50.9061 35.3406 50.6041 36.0376 50.0234 36.3745C49.5122 36.6533 48.8966 36.6764 48.3274 36.6184C47.9441 36.572 47.5608 36.3629 47.3633 36.0144C46.9218 35.0038 47.4678 33.5751 48.6177 33.3776ZM30.1949 34.1094C30.2297 33.7609 30.5434 33.4473 30.9034 33.459C33.5868 33.459 36.2584 33.4705 38.9301 33.459C39.2205 33.4357 39.5342 33.5634 39.6735 33.819C39.8709 34.1675 39.6967 34.5508 39.6735 34.9109C39.5922 35.3987 39.6154 36.0493 39.0463 36.2351C37.0948 36.2931 35.1433 36.2351 33.1918 36.2583C33.0059 37.4895 32.8317 38.7092 32.6458 39.9289C32.6458 39.9753 32.6575 40.08 32.6575 40.1263C34.0862 40.1147 35.5149 40.1263 36.9437 40.1147C37.3387 40.0915 37.7568 40.4285 37.7219 40.8465C37.6871 41.2764 37.5942 41.6945 37.5361 42.1243C37.4896 42.4147 37.2573 42.6819 36.9553 42.7399C35.3639 42.7748 33.7492 42.7051 32.158 42.7748C31.9023 44.5288 31.6003 46.2827 31.3331 48.0368C31.2984 48.3853 31.0195 48.6873 30.671 48.6988C30.009 48.7105 29.3468 48.7105 28.6848 48.6988C28.255 48.7105 27.9065 48.2341 28.0226 47.8276C28.7314 43.2511 29.4631 38.6861 30.1949 34.1094ZM41.9966 33.4821C42.6007 33.4357 43.2163 33.4705 43.8204 33.459C44.1921 33.4357 44.5638 33.7261 44.5986 34.1094C44.5986 34.4113 44.5173 34.7134 44.4825 35.0154C43.9946 38.1285 43.4951 41.2416 43.0072 44.3547C42.9375 44.8541 42.8097 45.3884 42.9608 45.8996C43.135 46.4106 43.9132 46.1899 44.0991 46.7242C44.2152 47.154 44.0874 47.607 44.0525 48.0485C44.0178 48.6292 43.3556 48.7569 42.9027 48.8849C41.9154 49.0707 40.7188 48.9313 40.0103 48.1181C39.4992 47.5258 39.4643 46.6894 39.5689 45.946C40.1845 41.9967 40.8001 38.0473 41.4275 34.0862C41.4624 33.7957 41.6946 33.5286 41.9966 33.4821ZM65.0542 34.1094C65.089 33.7609 65.4027 33.459 65.7512 33.459H67.5168C67.9582 33.4473 68.3184 33.9236 68.2138 34.3417C67.8072 36.9204 67.3891 39.4992 66.9825 42.0778C67.5982 41.9849 68.2952 41.8688 68.725 41.3693C69.445 40.5561 70.0376 39.6154 70.4789 38.628C70.6299 38.2447 70.7112 37.6871 71.2107 37.6174C71.8729 37.5942 72.5465 37.6058 73.2086 37.6174C73.6617 37.6058 73.9985 38.1169 73.8475 38.535C73.6733 39.1508 73.3829 39.7199 73.0809 40.2659C72.4072 41.3578 71.6638 42.438 70.688 43.2976C71.1178 44.5869 71.6638 45.8414 72.14 47.1076C72.2794 47.5258 72.6163 48.0136 72.3026 48.4203C71.9424 48.9081 71.2688 48.664 70.7693 48.7221C70.2466 48.664 69.4916 48.9312 69.2011 48.3388C68.6551 47.0727 68.2022 45.7718 67.6446 44.5056C67.3193 44.5171 66.9825 44.5289 66.6572 44.494C66.6341 44.5405 66.5876 44.6333 66.5643 44.6799C66.39 45.8414 66.2042 47.0031 66.0183 48.1646C65.9486 48.4434 65.7279 48.6874 65.4259 48.7106C64.8103 48.7338 64.183 48.7221 63.5558 48.7221C63.2885 48.7221 63.0447 48.5479 62.9285 48.3156C62.8123 48.0832 62.882 47.8162 62.917 47.5606C63.6371 43.0768 64.3456 38.5931 65.0542 34.1094ZM97.3348 35.3755C97.4162 35.0502 97.7297 34.8296 98.0551 34.8411C98.5198 34.8528 98.996 34.8296 99.4721 34.8528C99.8555 34.8644 100.158 35.2477 100.111 35.6194C100.041 36.2815 99.8786 36.9437 99.8323 37.6057C100.285 37.6057 100.75 37.5941 101.203 37.6057C101.609 37.6057 101.946 38.0239 101.877 38.4188C101.819 38.779 101.737 39.1275 101.679 39.4874C101.621 39.7895 101.366 40.0335 101.075 40.0799C100.518 40.1147 99.9717 40.0567 99.4257 40.1147C99.1934 41.6712 98.9379 43.2277 98.6939 44.7844C98.659 45.1444 98.6358 45.5509 98.8449 45.8646C99.1586 46.2479 99.7044 46.1085 100.146 46.155C100.494 46.2595 100.715 46.6429 100.657 46.9915C100.599 47.3863 100.587 47.7813 100.494 48.1645C100.355 48.5943 99.8555 48.6757 99.4721 48.7801C98.4151 49.059 97.1954 49.059 96.2546 48.4433C95.3835 47.8509 95.244 46.7009 95.3369 45.7252C95.5808 43.8434 95.9642 41.9732 96.1733 40.0799C95.848 40.0914 95.453 40.1379 95.2092 39.8475C94.9304 39.5572 95.0698 39.1273 95.1162 38.7671C95.186 38.3838 95.1743 37.8844 95.5925 37.6753C95.9293 37.5474 96.3127 37.6405 96.6728 37.594C96.8935 36.8507 97.1025 36.1073 97.3348 35.3755ZM90.7719 39.139C91.5037 38.4072 92.3864 37.8032 93.397 37.5013C93.8384 37.3037 94.4076 37.6755 94.396 38.1633C94.3147 38.8022 94.1637 39.4294 94.0592 40.0567C94.0126 40.3703 93.7455 40.6375 93.4318 40.6723C92.2935 40.8697 91.3061 41.555 90.5163 42.3682C90.3188 42.6122 90.0284 42.8445 89.9936 43.1813C89.7497 44.8075 89.4941 46.4338 89.2386 48.06C89.2038 48.4084 88.9016 48.7454 88.5416 48.7222H86.7759C86.3694 48.7454 86.0093 48.3389 86.0558 47.9323C86.5669 44.7146 87.0781 41.5087 87.5775 38.291C87.6007 37.9658 87.8331 37.6522 88.1698 37.6173C88.5997 37.5941 89.0294 37.6057 89.4709 37.6057C89.8193 37.6057 90.1445 37.9193 90.1445 38.2795C90.1445 38.7789 90.0981 39.29 90.0865 39.8011C90.3653 39.627 90.5395 39.3481 90.7719 39.139ZM47.3516 37.6638C47.9788 37.5361 48.6293 37.6406 49.2566 37.6057C49.6167 37.5593 50 37.7916 50.058 38.1517C50.1046 38.4769 50.0115 38.7906 49.9767 39.1043C49.5005 42.0896 49.0242 45.0748 48.5596 48.0601C48.5247 48.3971 48.2461 48.7339 47.8859 48.7222C47.2587 48.7222 46.6314 48.7339 45.9926 48.7107C45.5976 48.6641 45.3071 48.2112 45.4117 47.8278C45.9112 44.7265 46.3875 41.6366 46.887 38.535C46.9102 38.1982 47.0031 37.8032 47.3516 37.6638ZM84.9406 37.8149C83.2098 37.4896 81.4443 37.2573 79.6902 37.4315C78.1221 37.629 76.5423 38.3376 75.5783 39.627C74.2424 41.3228 73.7894 43.5996 74.0913 45.7138C74.254 46.7243 74.6954 47.7465 75.5202 48.3737C76.2868 48.9662 77.3206 49.0474 78.2499 48.8964C79.5508 48.6408 80.6543 47.8047 81.5604 46.8753C81.6068 47.2702 81.5139 47.6652 81.5372 48.0485C81.5604 48.4085 81.8856 48.7454 82.2457 48.7222H83.4306C83.7791 48.7222 84.0695 48.3971 84.0927 48.0601C84.5922 44.9122 85.0917 41.7758 85.5796 38.6396C85.6492 38.2446 85.3357 37.8613 84.9406 37.8149ZM81.6767 43.286C81.212 44.1572 80.5614 44.947 79.8296 45.6206C79.4115 45.9692 78.8771 46.3293 78.308 46.2132C77.7504 46.097 77.4832 45.5163 77.3555 45.0167C77.0651 43.7158 77.3323 42.2986 78.064 41.1719C78.3893 40.6491 78.912 40.2542 79.516 40.0915C80.3639 39.8824 81.2585 39.987 82.0832 40.2193L82.1296 40.2659C82.0251 41.2764 81.8276 42.2754 81.6767 43.286ZM62.1387 41.5436C62.127 40.382 61.8134 39.1623 61.0003 38.2911C60.4428 37.6755 59.6064 37.3619 58.7933 37.3734C57.4458 37.327 56.1797 37.9892 55.1924 38.8719C54.9716 39.0462 54.8206 39.3017 54.5768 39.4411C54.5768 39.0577 54.6116 38.6744 54.5999 38.2795C54.6116 37.9193 54.2747 37.6057 53.9262 37.6057H52.7413C52.3697 37.6057 52.0676 37.931 52.0444 38.2911C51.3126 42.9374 50.5693 47.5838 49.8374 52.2302C49.733 52.6599 50.1047 53.1014 50.5461 53.0898C51.1965 53.0782 51.8587 53.1362 52.4975 53.0432C53.0086 52.9038 52.997 52.3114 53.0783 51.8817C53.2641 50.8594 53.392 49.8372 53.5081 48.8034C55.7964 49.2448 58.4565 48.9429 60.164 47.212C61.5579 45.6904 62.2083 43.5879 62.1387 41.5436ZM58.8862 42.7167C58.8166 43.7854 58.4332 44.8657 57.6898 45.6439C56.7258 46.5617 55.262 46.4338 54.0772 46.1203C54.0541 46.0853 54.0192 46.0156 54.0076 45.9809C54.1934 44.9703 54.2863 43.948 54.5187 42.9491C55.1692 41.8805 55.959 40.8001 57.0857 40.2078C57.5039 40.0103 58.0731 40.0568 58.3751 40.4401C58.8862 41.079 58.9327 41.9385 58.8862 42.7167Z" fill="#107BD4" stroke="#107BD4" stroke-width="0.00429101"/>
<defs>
<linearGradient id="paint0_linear" x1="126.839" y1="30.0788" x2="126.839" y2="55.0501" gradientUnits="userSpaceOnUse">
<stop stop-color="#F7E830"/>
<stop offset="1" stop-color="#FDCB06"/>
</linearGradient>
<radialGradient id="paint1_radial" cx="0" cy="0" r="1" gradientUnits="userSpaceOnUse" gradientTransform="translate(126.708 41.4683) scale(20.3113)">
<stop offset="0.596" stop-color="#F29405"/>
<stop offset="0.736" stop-color="#F7D01E"/>
<stop offset="1" stop-color="#FDCB06"/>
</radialGradient>
<linearGradient id="paint2_linear" x1="133.786" y1="30.9801" x2="133.793" y2="32.1626" gradientUnits="userSpaceOnUse">
<stop stop-color="#FADA1C"/>
<stop offset="1" stop-color="#FDCB06"/>
</linearGradient>
<linearGradient id="paint3_linear" x1="119.876" y1="30.9235" x2="119.869" y2="32.106" gradientUnits="userSpaceOnUse">
<stop stop-color="#FADA1C"/>
<stop offset="1" stop-color="#FDCB06"/>
</linearGradient>
</defs>
</svg>
