<svg width="28" height="30" viewBox="0 0 28 30" fill="none" xmlns="http://www.w3.org/2000/svg">
<path d="M25.3557 0.6872C25.2229 0.388507 24.891 0.156189 24.5592 0.156189H3.18604C2.85416 0.156189 2.52228 0.355319 2.38952 0.6872L0.13276 5.59904C0.0663842 5.73179 0 5.86454 0 6.03048V8.38683C0 10.3117 1.39388 11.938 3.21922 12.3362V28.9302C3.21922 29.4281 3.61751 29.8263 4.11533 29.8263H23.6631C24.1609 29.8263 24.5592 29.4281 24.5592 28.9302V12.303C26.3845 11.938 27.7784 10.3117 27.7784 8.35364V6.03048C27.7784 5.86454 27.7452 5.73179 27.6457 5.59904L25.3557 0.6872ZM3.75027 1.94835H23.995L25.4552 5.1344H2.28998L3.75027 1.94835ZM19.4814 8.51958C19.415 9.68117 18.4526 10.6436 17.2578 10.6436H17.0255C15.7975 10.6436 14.7687 9.64798 14.7687 8.38683V6.92656H19.4814V8.38683C19.4814 8.42002 19.4814 8.45321 19.4814 8.51958ZM12.9765 6.92656V8.38683C12.9765 9.61479 11.9809 10.6436 10.7198 10.6436H10.4874C9.25946 10.6436 8.23065 9.64798 8.23065 8.38683V6.92656H12.9765ZM4.01575 10.6104C2.78779 10.6104 1.75898 9.61479 1.75898 8.35364V6.89337H6.47167V8.35364C6.47167 9.5816 5.47601 10.6104 4.21487 10.6104H4.01575ZM22.767 28.0342H4.97821V12.3362C5.94066 12.1703 6.77035 11.6061 7.36773 10.8759C8.09787 11.8052 9.22627 12.4026 10.4874 12.4026H10.7198C11.9809 12.4026 13.1093 11.8052 13.8394 10.8759C14.5695 11.8052 15.6979 12.4026 16.9591 12.4026H17.1914C18.4526 12.4026 19.5809 11.8052 20.3111 10.8759C20.9085 11.6061 21.7382 12.1371 22.7006 12.303V28.0342H22.767ZM25.9863 8.38683C25.9863 9.61479 24.9906 10.6436 23.7295 10.6436H23.4972C22.3024 10.6436 21.3399 9.71435 21.2735 8.51958C21.2735 8.48639 21.2735 8.45321 21.2735 8.38683V6.92656H25.9863V8.38683Z" fill="#002970"/>
<path d="M17.6525 18.1087L15.4511 17.7891C15.3445 17.7891 15.238 17.6826 15.167 17.5761L14.1728 15.5877C14.0307 15.3036 13.6402 15.3036 13.5336 15.5877L12.5394 17.5761C12.5039 17.6826 12.3974 17.7536 12.2554 17.7891L10.0539 18.1087C9.76984 18.1442 9.62782 18.4993 9.84086 18.7123L11.4387 20.2747C11.5097 20.3457 11.5452 20.4877 11.5452 20.5942L11.1546 22.7957C11.1191 23.0798 11.4032 23.3283 11.6872 23.1863L13.6757 22.1566C13.7822 22.0855 13.9242 22.0855 13.9952 22.1566L15.9837 23.1863C16.2322 23.3283 16.5518 23.1153 16.5163 22.7957L16.1257 20.5942C16.0902 20.4877 16.1612 20.3457 16.2322 20.2747L17.83 18.7123C18.0431 18.5348 17.9366 18.1797 17.6525 18.1087Z" fill="#002970"/>
</svg>
