<svg width="158" height="28" viewBox="0 0 158 28" fill="none" xmlns="http://www.w3.org/2000/svg">
<path d="M88.2691 8.19683C87.8652 7.042 87.1122 6.04133 86.1145 5.33341C85.1167 4.62548 83.9235 4.24534 82.7001 4.24563H82.6336C81.8381 4.24525 81.0508 4.40577 80.319 4.71754C79.5872 5.0293 78.926 5.48586 78.3753 6.05976C77.8237 5.48606 77.1619 5.02966 76.4296 4.71793C75.6973 4.4062 74.9097 4.24556 74.1138 4.24563H74.0853C72.6729 4.24166 71.3063 4.74628 70.2354 5.66718V5.21443C70.2206 4.99737 70.1245 4.79387 69.9663 4.64455C69.8083 4.49582 69.6007 4.41118 69.3838 4.4071H65.4231C65.191 4.4071 64.9684 4.49906 64.8041 4.66284C64.6397 4.82662 64.5469 5.04888 64.5461 5.28092V26.7244C64.5469 26.9564 64.6397 27.1787 64.8041 27.3425C64.9684 27.5062 65.191 27.5982 65.4231 27.5982H69.3711C69.5798 27.5941 69.7804 27.5168 69.9378 27.3797C70.0947 27.2407 70.1959 27.0495 70.2228 26.8415V11.2995C70.2533 10.9516 70.4071 10.626 70.6565 10.3814C70.9061 10.1361 71.2377 9.99174 71.5873 9.97613H72.3155C72.6188 9.99435 72.9093 10.1048 73.1482 10.2927C73.3178 10.4325 73.455 10.6075 73.5502 10.8056C73.6388 11.0049 73.6841 11.2207 73.6832 11.4388V26.756C73.684 26.987 73.7759 27.2083 73.9389 27.3719C74.102 27.5355 74.3229 27.6282 74.5539 27.6299H78.5177C78.7427 27.6317 78.9595 27.5457 79.122 27.3902C79.2846 27.2347 79.3802 27.022 79.3884 26.7972V11.4325C79.3842 11.1896 79.4396 10.9493 79.5499 10.7328C79.6655 10.5188 79.8305 10.3354 80.0311 10.1978C80.2497 10.057 80.5 9.97318 80.7593 9.95396H81.4875C81.8626 9.97521 82.2148 10.1412 82.4699 10.417C82.725 10.6928 82.8632 11.0569 82.8552 11.4325V26.7275C82.8552 26.8427 82.8778 26.9567 82.9217 27.0631C82.9666 27.1682 83.031 27.2639 83.1116 27.3449C83.1942 27.4284 83.2929 27.4943 83.4018 27.5383C83.5107 27.5824 83.6274 27.6039 83.7448 27.6014H87.6992C87.8077 27.6 87.9151 27.5785 88.0158 27.538C88.1215 27.4925 88.2181 27.4281 88.3007 27.3481C88.3824 27.2686 88.4461 27.1725 88.4875 27.0663C88.5314 26.9599 88.554 26.8458 88.554 26.7307V10.2674C88.5903 9.55822 88.4892 8.8487 88.2564 8.17783" fill="#00B8F5"/>
<path d="M61.5415 4.47047H59.2715V0.813706C59.2741 0.705101 59.2536 0.59718 59.2113 0.497104C59.1718 0.400271 59.1137 0.312083 59.0404 0.237488C58.9659 0.161786 58.8764 0.10248 58.7776 0.0633611C58.6776 0.0205495 58.5698 -0.00101695 58.461 3.68363e-05C58.4108 0.000450338 58.3609 0.00682634 58.3122 0.0190322C55.8079 0.706059 56.3239 4.17286 51.7427 4.4673H51.29C51.2261 4.46842 51.1624 4.47585 51.1 4.48946C50.9057 4.53529 50.7333 4.6472 50.6124 4.80606C50.4886 4.96068 50.4206 5.15254 50.4193 5.35062V9.30181C50.4201 9.53276 50.512 9.75406 50.675 9.91767C50.8381 10.0813 51.059 10.174 51.29 10.1756H53.6771V26.9049C53.6757 27.0131 53.695 27.1206 53.7341 27.2215C53.7787 27.326 53.842 27.4215 53.9209 27.5033C54.001 27.5828 54.0956 27.6462 54.1995 27.6901C54.2997 27.7329 54.4073 27.7555 54.5161 27.7565H58.4167C58.6443 27.7532 58.8613 27.6602 59.0208 27.4978C59.1802 27.3354 59.2692 27.1167 59.2683 26.8891V10.1788H61.4846C61.5987 10.1788 61.7116 10.1562 61.817 10.1123C61.923 10.0674 62.0197 10.003 62.1019 9.92234C62.2638 9.75784 62.3538 9.53578 62.352 9.30497V5.35378C62.3529 5.23947 62.331 5.12614 62.2878 5.02034C62.2445 4.91453 62.1807 4.81836 62.1 4.73739C62.0193 4.65641 61.9234 4.59225 61.8178 4.5486C61.7121 4.50496 61.5989 4.4827 61.4846 4.48312" fill="#00B8F5"/>
<path d="M47.3387 4.47044H43.3907C43.1596 4.4734 42.9385 4.56524 42.7734 4.72689C42.6094 4.89056 42.5172 5.11261 42.5169 5.34426V13.5094C42.5136 13.7524 42.4147 13.9843 42.2417 14.155C42.0687 14.3256 41.8354 14.4213 41.5924 14.4212H39.9398C39.8183 14.4202 39.698 14.3966 39.5852 14.3516C39.473 14.3036 39.371 14.2348 39.2844 14.149C39.1988 14.0628 39.131 13.9606 39.0849 13.8482C39.0379 13.736 39.0142 13.6153 39.0153 13.4936L38.9963 5.34426C38.9958 5.11327 38.9049 4.89165 38.743 4.72689C38.5793 4.56296 38.3573 4.47072 38.1256 4.47044H34.1934C33.9619 4.47128 33.7402 4.5636 33.5765 4.7273C33.4128 4.89099 33.3204 5.11276 33.3196 5.34426V14.2946C33.3196 17.7012 35.7416 20.1106 39.1419 20.1106C39.1419 20.1106 41.7001 20.1106 41.7729 20.1296C41.9985 20.1538 42.2071 20.2607 42.3585 20.4297C42.5099 20.5986 42.5934 20.8177 42.5929 21.0446C42.5929 21.2686 42.5106 21.4849 42.3618 21.6524C42.2146 21.8245 42.0097 21.9371 41.7856 21.969H41.7191L35.9474 21.988C35.7159 21.9889 35.4941 22.0812 35.3305 22.2449C35.1668 22.4086 35.0744 22.6304 35.0736 22.8619V26.8099C35.0754 26.9187 35.098 27.0261 35.1401 27.1265C35.1826 27.2338 35.2474 27.3309 35.33 27.4114C35.4102 27.493 35.5061 27.5576 35.6118 27.6014C35.7189 27.6426 35.8326 27.664 35.9474 27.6647H42.4029C45.8127 27.6647 48.2252 25.2459 48.2252 21.8456V5.33159C48.2252 5.10068 48.1335 4.87923 47.9702 4.71595C47.807 4.55267 47.5855 4.46094 47.3546 4.46094" fill="#012A72"/>
<path d="M9.49849 4.47069H0.852085C0.62592 4.47153 0.4093 4.56195 0.249673 4.72217C0.0900463 4.88239 0.000422758 5.09935 0.000424309 5.32551V26.7753C-0.00655957 26.9962 0.0728978 27.211 0.221895 27.3742C0.370892 27.5374 0.57767 27.636 0.798258 27.6491H4.81911C4.93425 27.6491 5.04826 27.6265 5.15471 27.5826C5.26029 27.5401 5.35615 27.4765 5.43649 27.3958C5.51818 27.3145 5.58276 27.2176 5.62644 27.1109C5.66855 27.0106 5.69112 26.9031 5.69293 26.7943V20.7789H9.49849C12.6645 20.7789 14.8617 18.588 14.8617 15.4125V9.84659C14.8617 6.68057 12.6455 4.46436 9.49849 4.46436V4.47069ZM9.14072 11.7082V14.1429C9.13965 14.2644 9.11604 14.3846 9.07107 14.4975C9.02306 14.6096 8.95432 14.7116 8.86845 14.7983C8.78311 14.8849 8.68068 14.9528 8.56767 14.9977C8.45543 15.0448 8.33478 15.0685 8.21308 15.0674H5.69926V10.1854H8.20358C8.32515 10.1857 8.44553 10.2093 8.55818 10.255C8.67133 10.3011 8.77373 10.3701 8.85895 10.4576C8.94519 10.5439 9.01398 10.6461 9.06157 10.7584C9.10687 10.8701 9.13051 10.9893 9.13123 11.1098L9.14072 11.7082Z" fill="#012A72"/>
<path d="M24.8727 4.49607H19.3955C19.2841 4.49161 19.1729 4.50947 19.0685 4.54862C18.9641 4.58776 18.8686 4.64741 18.7876 4.72403C18.6239 4.87862 18.5273 5.09114 18.5185 5.31607V9.01398C18.5216 9.13315 18.5484 9.2505 18.5974 9.3592C18.6463 9.46791 18.7163 9.5658 18.8034 9.64719C18.9753 9.80688 19.2021 9.8942 19.4366 9.89098H24.6542C24.8608 9.91995 25.0512 10.0186 25.194 10.1706C25.3368 10.3226 25.4234 10.5189 25.4394 10.7268V11.2334C25.425 11.4367 25.3411 11.629 25.2019 11.7779C25.0626 11.9268 24.8755 12.022 24.6732 12.047H22.0929C18.6578 12.047 16.2073 14.3202 16.2073 17.5337V22.1276C16.2073 25.3127 18.3127 27.5795 21.7256 27.5795H28.884C29.4804 27.5992 30.0602 27.3816 30.4964 26.9745C30.9326 26.5674 31.1896 26.0039 31.211 25.4076V10.4165C31.211 6.78511 29.3368 4.48975 24.86 4.48975L24.8727 4.49607ZM25.5059 20.9594V21.5736C25.5044 21.6226 25.4981 21.6714 25.4869 21.7192C25.4786 21.7623 25.467 21.8046 25.4521 21.8459C25.3824 22.0231 25.2611 22.1753 25.1038 22.2828C24.9468 22.3886 24.7612 22.4438 24.5719 22.4411H22.9319C22.693 22.4479 22.461 22.3604 22.2862 22.1974C22.1114 22.0345 22.0078 21.8092 21.9979 21.5704V18.2081C22.0086 17.9699 22.1126 17.7454 22.2873 17.5831C22.462 17.4208 22.6935 17.3337 22.9319 17.3406H24.5719C24.8108 17.3338 25.0428 17.4213 25.2176 17.5842C25.3924 17.7472 25.496 17.9725 25.5059 18.2113V20.9594Z" fill="#012A72"/>
<path d="M144.128 0H110.797C103.174 0 96.9946 6.17959 96.9946 13.8025C96.9946 21.4254 103.174 27.605 110.797 27.605H144.128C151.751 27.605 157.931 21.4254 157.931 13.8025C157.931 6.17959 151.751 0 144.128 0Z" fill="#00B8F5"/>
<path d="M111.23 23.0614H115.694V17.3129H118.731C122.972 17.3129 125.621 14.8003 125.621 10.9579C125.621 7.11547 123.025 4.55387 118.866 4.55387H111.219L111.23 23.0614ZM115.694 13.7869V8.15518H117.898C119.906 8.15518 120.983 9.2401 120.983 10.9579C120.983 12.6757 119.906 13.7869 117.898 13.7869H115.694ZM138.956 10.5962H143.476C143.024 6.90829 139.736 4.29395 135.449 4.29395C130.506 4.29395 126.6 7.77471 126.6 13.8321C126.6 19.6899 130.198 23.3138 135.505 23.3138C140.267 23.3138 143.676 20.3567 143.676 15.403V12.9507H135.713V16.2129H139.382C139.336 18.168 137.984 19.4074 135.562 19.4074C132.786 19.4074 131.185 17.3544 131.185 13.7907C131.185 10.2271 132.876 8.2343 135.562 8.2343C137.351 8.21923 138.572 9.09318 138.967 10.5962H138.956Z" fill="white"/>
</svg>
